<svg width="16" height="16" viewBox="0 0 16 16" fill="none" xmlns="http://www.w3.org/2000/svg">
<path d="M14.3332 2.66607H12.5555V3.9994C12.5555 4.1278 12.5302 4.25495 12.481 4.37358C12.4319 4.49221 12.3599 4.6 12.2691 4.69079C12.1783 4.78159 12.0705 4.85361 11.9519 4.90275C11.8332 4.95189 11.7061 4.97718 11.5777 4.97718C11.4493 4.97718 11.3221 4.95189 11.2035 4.90275C11.0849 4.85361 10.9771 4.78159 10.8863 4.69079C10.7955 4.6 10.7235 4.49221 10.6743 4.37358C10.6252 4.25495 10.5999 4.1278 10.5999 3.9994V2.66607H5.42212V3.9994C5.42212 4.25872 5.3191 4.50742 5.13573 4.69079C4.95237 4.87416 4.70366 4.97718 4.44434 4.97718C4.18502 4.97718 3.93632 4.87416 3.75295 4.69079C3.56958 4.50742 3.46656 4.25872 3.46656 3.9994V2.66607H1.68879C1.58302 2.66486 1.47808 2.68488 1.38019 2.72494C1.28229 2.765 1.19342 2.82428 1.11884 2.89928C1.04425 2.97428 0.985462 3.06348 0.945948 3.16159C0.906434 3.25971 0.886997 3.36475 0.888786 3.47051V13.4172C0.88702 13.5211 0.905739 13.6243 0.943873 13.721C0.982007 13.8176 1.03881 13.9058 1.11104 13.9805C1.18326 14.0552 1.2695 14.115 1.36482 14.1563C1.46013 14.1977 1.56267 14.2199 1.66656 14.2216H14.3332C14.4371 14.2199 14.5397 14.1977 14.635 14.1563C14.7303 14.115 14.8165 14.0552 14.8888 13.9805C14.961 13.9058 15.0178 13.8176 15.0559 13.721C15.0941 13.6243 15.1128 13.5211 15.111 13.4172V3.47051C15.1128 3.36662 15.0941 3.26339 15.0559 3.16673C15.0178 3.07008 14.961 2.98188 14.8888 2.90717C14.8165 2.83247 14.7303 2.77273 14.635 2.73136C14.5397 2.68999 14.4371 2.6678 14.3332 2.66607ZM4.44434 11.555H3.55545V10.6661H4.44434V11.555ZM4.44434 9.33273H3.55545V8.44384H4.44434V9.33273ZM4.44434 7.11051H3.55545V6.22162H4.44434V7.11051ZM7.11101 11.555H6.22212V10.6661H7.11101V11.555ZM7.11101 9.33273H6.22212V8.44384H7.11101V9.33273ZM7.11101 7.11051H6.22212V6.22162H7.11101V7.11051ZM9.77767 11.555H8.88879V10.6661H9.77767V11.555ZM9.77767 9.33273H8.88879V8.44384H9.77767V9.33273ZM9.77767 7.11051H8.88879V6.22162H9.77767V7.11051ZM12.4443 11.555H11.5555V10.6661H12.4443V11.555ZM12.4443 9.33273H11.5555V8.44384H12.4443V9.33273ZM12.4443 7.11051H11.5555V6.22162H12.4443V7.11051Z" fill="#D4D4D4"/>
<path d="M4.44444 4.44423C4.56232 4.44423 4.67536 4.3974 4.75871 4.31405C4.84206 4.2307 4.88889 4.11766 4.88889 3.99978V1.33312C4.88889 1.21524 4.84206 1.1022 4.75871 1.01885C4.67536 0.935497 4.56232 0.888672 4.44444 0.888672C4.32657 0.888672 4.21352 0.935497 4.13017 1.01885C4.04683 1.1022 4 1.21524 4 1.33312V3.99978C4 4.11766 4.04683 4.2307 4.13017 4.31405C4.21352 4.3974 4.32657 4.44423 4.44444 4.44423Z" fill="#D4D4D4"/>
<path d="M11.5555 4.44423C11.6734 4.44423 11.7864 4.3974 11.8698 4.31405C11.9531 4.2307 12 4.11766 12 3.99978V1.33312C12 1.21524 11.9531 1.1022 11.8698 1.01885C11.7864 0.935497 11.6734 0.888672 11.5555 0.888672C11.4377 0.888672 11.3246 0.935497 11.2413 1.01885C11.1579 1.1022 11.1111 1.21524 11.1111 1.33312V3.99978C11.1111 4.11766 11.1579 4.2307 11.2413 4.31405C11.3246 4.3974 11.4377 4.44423 11.5555 4.44423Z" fill="#D4D4D4"/>
</svg>
