<svg width="64" height="64" viewBox="0 0 64 64" fill="none" xmlns="http://www.w3.org/2000/svg">
<g clip-path="url(#clip0)">
<path d="M27.4278 38.7533L22.5608 43.6203C21.194 44.9872 18.978 44.9872 17.6111 43.6203C16.2442 42.2534 16.2442 40.0375 17.6111 38.6706L21.0405 35.2412L27.4278 38.7533Z" fill="#FFDDCF"/>
<path d="M14.6963 26.0226L9.82934 30.8895C8.46248 32.2564 6.2465 32.2564 4.87964 30.8895C3.51278 29.5227 3.51278 27.3067 4.87964 25.9398L8.30898 22.5105C12.5624 18.257 18.3314 15.8674 24.3467 15.8674C32.6857 15.8674 40.3523 20.4435 44.3101 27.7836L47.9991 34.6249L43.0118 53.4976L14.6963 26.0226Z" fill="#FFDDCF"/>
<path d="M54.168 60.1617L44.5088 57.5735C43.1752 57.2161 42.3837 55.8452 42.7411 54.5116L48.1763 34.2273C48.5337 32.8937 49.9045 32.1022 51.2381 32.4596L60.8973 35.0478C62.2309 35.4052 63.0224 36.7761 62.665 38.1097L57.2298 58.394C56.8725 59.7276 55.5017 60.5191 54.168 60.1617Z" fill="#91DEF5"/>
<path d="M36.9648 3.75037L44.7418 11.5273L15.1342 41.1348L7.3573 33.3579L36.9648 3.75037Z" fill="#FFCB7C"/>
<path d="M1.25 47.2476L7.35482 33.3647L15.1329 41.1429L1.25 47.2476Z" fill="#98A1B3"/>
<path d="M32.0584 37.3146L24.4856 29.7418C22.9235 28.1797 20.3909 28.1797 18.8288 29.7418C17.2667 31.3039 17.2667 33.8365 18.8288 35.3986L26.4016 42.9714C29.141 49.3576 35.4218 53.4977 42.3707 53.4977H43.0127L32.0584 37.3146Z" fill="#FFDDCF"/>
<path d="M61.22 33.8405L51.5608 31.2524C50.2809 30.9095 48.976 31.2757 48.0622 32.1078L45.4107 27.1904C43.7611 24.1311 41.4469 21.4539 38.6677 19.3759L45.6287 12.4148C46.1169 11.9267 46.1169 11.1352 45.6287 10.647L37.8507 2.8688C37.3626 2.38081 36.5711 2.38081 36.0828 2.8688L24.3341 14.6176C21.18 14.6193 18.1034 15.2319 15.1892 16.439C12.2711 17.6478 9.65896 19.3931 7.42548 21.6265L3.99614 25.056C3.0989 25.9532 2.6049 27.1459 2.6049 28.4147C2.6049 29.6834 3.09902 30.8762 3.99614 31.7734C4.61288 32.3901 5.3585 32.8003 6.14699 33.0063L0.105802 46.7445C-0.101696 47.2162 0.00167771 47.7671 0.366174 48.1316C0.605672 48.371 0.925419 48.4977 1.25042 48.4977C1.42016 48.4977 1.59141 48.4632 1.75329 48.392L15.4933 42.35C15.699 43.1398 16.1094 43.8867 16.7269 44.5043C17.6529 45.4303 18.8692 45.8933 20.0856 45.8933C21.302 45.8933 22.5183 45.4303 23.4443 44.5043L24.8053 43.1433L25.3503 43.6883C28.2122 50.1282 34.4326 54.3707 41.4305 54.7213C41.335 55.52 41.4983 56.3246 41.9078 57.0338C42.4085 57.9013 43.2173 58.5218 44.1847 58.781L53.8439 61.3692C54.1678 61.456 54.493 61.4974 54.8135 61.4974C56.469 61.4974 57.9882 60.3907 58.4366 58.7175L59.6652 54.132C59.844 53.4653 59.4482 52.7799 58.7814 52.6012C58.1149 52.4224 57.4291 52.8182 57.2505 53.4851L56.0219 58.0705C55.8435 58.7364 55.1568 59.133 54.4909 58.9544L44.8317 56.3662C44.5092 56.2798 44.2397 56.0729 44.0727 55.7838C43.9059 55.4947 43.8615 55.1578 43.9479 54.8353L49.3829 34.5511C49.5614 33.8854 50.2486 33.4891 50.9139 33.6672L60.5731 36.2554C61.2388 36.4338 61.6355 37.1206 61.457 37.7863L60.1627 42.6167C59.984 43.2834 60.3797 43.9688 61.0466 44.1475C61.7129 44.3263 62.3988 43.9305 62.5774 43.2637L63.8717 38.4333C64.4069 36.436 63.2173 34.3757 61.22 33.8405ZM42.9771 11.5308L25.5096 28.9984L25.3689 28.8578C24.6567 28.1456 23.7753 27.6647 22.816 27.4494L40.8558 9.40949L42.9771 11.5308ZM36.9668 5.52053L39.088 7.64176L11.2437 35.486L9.12246 33.3648L36.9668 5.52053ZM5.76387 30.0057C5.33888 29.5808 5.10488 29.0157 5.10488 28.4147C5.10488 27.8137 5.33888 27.2487 5.76387 26.8237L9.19321 23.3942C12.6028 19.9846 16.9591 17.8657 21.6693 17.2822L8.94571 30.0057C8.0686 30.8832 6.64111 30.8829 5.76387 30.0057ZM7.76323 35.5411L12.9564 40.7343L3.68714 44.8104L7.76323 35.5411ZM15.1329 39.3751L13.0117 37.2538L16.5388 33.7268C16.749 34.664 17.2166 35.5545 17.9445 36.2825L18.0851 36.4231L15.1329 39.3751ZM21.6763 42.7364C20.799 43.6137 19.3716 43.6135 18.4944 42.7365C17.6171 41.859 17.6171 40.4317 18.4944 39.5544L19.8554 38.1935L23.0373 41.3753L21.6763 42.7364ZM42.0546 52.2418C35.7241 52.1191 30.0539 48.3161 27.5498 42.4787C27.4872 42.3327 27.3973 42.2 27.2849 42.0875L19.7121 34.5147C18.6399 33.4426 18.6399 31.6979 19.7121 30.6258C20.2315 30.1064 20.9221 29.8203 21.6566 29.8203C22.3911 29.8203 23.0817 30.1064 23.6011 30.6258L31.1739 38.1986C31.662 38.6866 32.4535 38.6866 32.9417 38.1986C33.4298 37.7105 33.4298 36.919 32.9417 36.4307L27.2773 30.7663L36.8777 21.1659C39.4968 23.0554 41.6755 25.5305 43.2104 28.3769L46.7101 34.8672L42.0546 52.2418Z" fill="black"/>
<path d="M59.915 49.625C59.585 49.625 59.2638 49.4913 59.03 49.2586C58.7975 49.025 58.665 48.7038 58.665 48.375C58.665 48.0449 58.7975 47.7238 59.03 47.49C59.2625 47.2575 59.585 47.125 59.915 47.125C60.2438 47.125 60.5663 47.2575 60.7988 47.49C61.0313 47.7238 61.165 48.0449 61.165 48.375C61.165 48.7038 61.0313 49.0263 60.7988 49.2586C60.565 49.4913 60.2438 49.625 59.915 49.625Z" fill="black"/>
</g>
<defs>
<clipPath id="clip0">
<rect width="64" height="64" fill="white"/>
</clipPath>
</defs>
</svg>
