<svg width="64" height="64" viewBox="0 0 64 64" fill="none" xmlns="http://www.w3.org/2000/svg">
<path d="M46.7073 26.945H46.7282C48.5247 26.945 49.9804 25.4881 49.9804 23.6927C49.9804 21.8962 48.5247 20.4392 46.7282 20.4392C46.7048 20.4392 46.6814 20.4392 46.6581 20.4405H16.8771C16.8537 20.4392 16.8303 20.4392 16.8069 20.4392C15.0104 20.4392 13.5547 21.8961 13.5547 23.6927C13.5547 25.4881 15.0104 26.945 16.8069 26.945H16.8278" fill="#F1B986"/>
<path d="M45.9587 11.9465C36.4975 11.0292 27.0365 11.0292 17.5754 11.9465C16.8413 17.829 16.6251 23.7116 16.9267 29.5941C17.1463 33.8763 20.5729 37.2847 24.8559 37.487C29.4633 37.7045 34.0707 37.7045 38.678 37.487C42.961 37.2847 46.3877 33.8763 46.6073 29.5941C46.9092 23.7115 46.6929 17.829 45.9587 11.9465Z" fill="#F1D0A5"/>
<path d="M17.5763 11.9456C22.306 11.4868 27.0372 11.2582 31.7683 11.2582C29.3731 11.2582 26.9779 11.4897 24.5827 11.9526C24.2101 17.8918 24.1014 23.8312 24.2538 29.7691C24.3541 33.6773 25.7824 36.8643 27.6568 37.5912C26.7238 37.5658 25.7894 37.5304 24.8566 37.4867C20.5743 37.2848 17.1473 33.8762 16.9272 29.5939C16.6264 23.7113 16.8423 17.8284 17.5763 11.9456Z" fill="#F1B986"/>
<path d="M39.6474 16.8382C34.2094 18.939 26.4848 18.0126 22.5918 14.1198C22.5918 14.1198 21.6673 20.4405 16.8778 20.4405L14.7892 21.1429C9.21092 -0.7535 21.109 5.09713 21.109 5.09713C22.2323 2.92025 23.8685 2.019 25.578 1.80163C25.7285 1.783 25.879 1.76913 26.0305 1.75988C26.0427 1.75988 26.0547 1.759 26.0668 1.758C27.2709 1.69388 28.4899 1.93825 29.5733 2.28662C29.9506 2.40837 30.3119 2.54212 30.6502 2.68062C32.0113 3.23712 33.0027 3.8625 33.2108 3.99625C33.2378 4.01487 33.2517 4.02413 33.2517 4.02413C34.476 2.40363 35.6439 0.9375 36.9279 0.9375C37.4547 0.9375 37.8189 1.13913 38.0633 1.4615C38.9897 2.67588 38.2287 5.596 38.1673 5.8255L38.1645 5.83575C38.1654 5.83388 38.1664 5.83012 38.1683 5.8255L38.1748 5.80875C38.3393 5.39438 40.1789 0.9375 43.4782 0.9375C43.6863 0.9375 43.873 0.957 44.0393 0.994125C46.4987 1.53763 44.5735 5.83938 44.3617 6.29462L44.356 6.30762C44.3504 6.31875 44.3468 6.32713 44.3449 6.33087C44.4499 6.19712 48.5687 0.968125 50.3989 3.367C50.3998 3.36888 50.3998 3.36888 50.4008 3.36975C52.247 5.80325 45.0827 14.7384 39.6474 16.8382Z" fill="#F4DD45"/>
<path d="M50.3985 3.3671H50.3977C49.4723 2.4426 46.2669 6.8066 44.3418 6.33372L44.3558 6.30773C44.3502 6.31885 44.3465 6.32722 44.3447 6.33098C44.4494 6.1971 48.5682 0.9681 50.3985 3.3671Z" fill="#ECC32E"/>
<path d="M44.0396 0.994128C42.6493 0.678378 41.3607 3.3245 40.6327 5.203C40.2806 6.11138 39.19 6.476 38.362 5.96263L38.1631 5.83938L38.165 5.83563L38.1677 5.82538H38.1686L38.1751 5.80863C38.3396 5.39425 40.1792 0.937378 43.4785 0.937378C43.6865 0.937503 43.8732 0.957003 44.0396 0.994128Z" fill="#ECC32E"/>
<path d="M25.578 1.80151C21.5996 2.50301 20.0962 11.624 22.5919 14.1195C22.5919 14.1195 21.6674 20.4403 16.8779 20.4403L14.7892 21.1426C9.21085 -0.753611 21.109 5.09701 21.109 5.09701C22.2324 2.92014 23.8685 2.01889 25.578 1.80151Z" fill="#ECC32E"/>
<path d="M38.0639 1.4615C36.6657 0.0632496 35.7337 7.234 32.5859 8.38238C29.4382 9.53075 29.1436 8.06275 29.1436 8.06275V8.06188C30.6933 7.48863 32.0014 5.67688 33.2512 4.023C33.2521 4.02388 33.2521 4.02388 33.2521 4.02388C33.2902 3.97275 33.3282 3.92263 33.3663 3.87238C33.4137 3.80825 33.4629 3.74413 33.5113 3.681C34.6429 2.203 35.7356 0.9375 36.9286 0.9375C37.4553 0.9375 37.8196 1.13913 38.0639 1.4615Z" fill="#ECC32E"/>
<path d="M26.0693 1.75893C26.0563 1.75893 26.0433 1.75893 26.0303 1.75993C26.0424 1.75993 26.0544 1.75893 26.0665 1.75806L26.0693 1.75893Z" fill="#ECC32E"/>
<path d="M55.5451 35.0563V56.1863C55.5451 57.5388 54.6014 58.7088 53.2801 58.995L34.5114 63.0625H32.0889V36.0525H34.5114L52.0626 32.2488C53.8526 31.86 55.5451 33.225 55.5451 35.0563Z" fill="#DA4A54"/>
<path d="M32.0894 36.0525V63.0625H29.4869L10.7181 58.995C9.39688 58.7088 8.45312 57.5388 8.45312 56.1863V35.0563C8.45312 33.225 10.1456 31.86 11.9356 32.2488L29.4869 36.0525H32.0894Z" fill="#C32430"/>
<path d="M29.4873 63.0626V36.0525H34.5118V63.0626" fill="#DD636E"/>
<path d="M7.93742 45.2659H6.95442C5.50292 45.2659 4.32617 44.0891 4.32617 42.6376V40.2784C4.32617 38.8269 5.50292 37.6501 6.95442 37.6501H7.93742C9.38892 37.6501 10.5657 38.8269 10.5657 40.2784V42.6376C10.5657 44.0893 9.38905 45.2659 7.93742 45.2659Z" fill="#F1D0A5"/>
<path d="M8.4434 45.2164C8.2809 45.2501 8.1109 45.2664 7.9384 45.2664H6.95465C5.5034 45.2664 4.32715 44.0889 4.32715 42.6376V40.2789C4.32715 38.8264 5.5034 37.6501 6.95465 37.6501H7.9384C8.1109 37.6501 8.2809 37.6664 8.4434 37.7001C7.23465 37.9351 6.32215 39.0001 6.32215 40.2789V42.6376C6.32215 43.9164 7.23465 44.9814 8.4434 45.2164Z" fill="#F1B986"/>
<path d="M57.0448 45.2659H56.0618C54.6103 45.2659 53.4336 44.0891 53.4336 42.6376V40.2784C53.4336 38.8269 54.6103 37.6501 56.0618 37.6501H57.0448C58.4963 37.6501 59.6731 38.8269 59.6731 40.2784V42.6376C59.6731 44.0893 58.4965 45.2659 57.0448 45.2659Z" fill="#F1D0A5"/>
<path d="M57.5508 45.2164C57.3883 45.2501 57.2183 45.2664 57.0458 45.2664H56.0621C54.6108 45.2664 53.4346 44.0889 53.4346 42.6376V40.2789C53.4346 38.8264 54.6108 37.6501 56.0621 37.6501H57.0458C57.2183 37.6501 57.3883 37.6664 57.5508 37.7001C56.3421 37.9351 55.4296 39.0001 55.4296 40.2789V42.6376C55.4296 43.9164 56.3421 44.9814 57.5508 45.2164Z" fill="#F1B986"/>
<path d="M35.6578 30.3018C35.8798 29.834 35.6807 29.2749 35.2128 29.0529C34.7449 28.8309 34.1859 29.0302 33.9639 29.4979C33.5634 30.3417 32.7014 30.8869 31.7678 30.8869C30.8342 30.8869 29.9722 30.3417 29.5718 29.4979C29.3498 29.0302 28.7907 28.8309 28.3229 29.0529C27.8552 29.2749 27.6559 29.834 27.8778 30.3018C28.587 31.7963 30.1139 32.7619 31.7678 32.7619C33.4217 32.7619 34.9486 31.7962 35.6578 30.3018Z" fill="black"/>
<path d="M24.8434 26.4409C25.5912 26.4409 26.1975 25.5385 26.1975 24.4253C26.1975 23.3121 25.5912 22.4097 24.8434 22.4097C24.0955 22.4097 23.4893 23.3121 23.4893 24.4253C23.4893 25.5385 24.0955 26.4409 24.8434 26.4409Z" fill="black"/>
<path d="M38.694 26.4409C39.4418 26.4409 40.0481 25.5385 40.0481 24.4253C40.0481 23.3121 39.4418 22.4097 38.694 22.4097C37.9461 22.4097 37.3398 23.3121 37.3398 24.4253C37.3398 25.5385 37.9461 26.4409 38.694 26.4409Z" fill="black"/>
<path d="M52.1472 39.8113C52.0376 39.3053 51.5388 38.9841 51.0324 39.0937L40.6512 41.3437C40.1452 41.4533 39.8239 41.9525 39.9336 42.4585C40.0287 42.8976 40.4172 43.1976 40.8488 43.1976C40.9146 43.1976 40.9814 43.1906 41.0483 43.1761L51.4296 40.9261C51.9356 40.8165 52.2568 40.3175 52.1472 39.8113Z" fill="black"/>
<path d="M51.0324 42.5774L40.6512 44.8275C40.1452 44.9371 39.8239 45.4362 39.9336 45.9422C40.0287 46.3813 40.4172 46.6813 40.8488 46.6813C40.9146 46.6813 40.9814 46.6743 41.0483 46.6598L51.4296 44.4098C51.9356 44.3002 52.2568 43.8011 52.1472 43.2951C52.0377 42.7891 51.5389 42.4679 51.0324 42.5774Z" fill="black"/>
<path d="M57.0444 36.7126H56.4833V35.0563C56.4833 33.8983 55.9659 32.8171 55.0639 32.09C54.1622 31.363 52.9962 31.0869 51.8648 31.3326L46.9781 32.3916C47.3036 31.5131 47.4969 30.5858 47.5458 29.6418C47.5774 29.024 47.6021 28.4051 47.6223 27.7857C49.5046 27.3751 50.9187 25.6965 50.9187 23.6929C50.9187 21.6659 49.4725 19.9708 47.5582 19.5846C47.4452 17.2361 47.2505 14.8901 46.9758 12.557C49.1694 10.2164 50.8938 7.609 51.4352 5.69163C51.7787 4.47513 51.6809 3.50175 51.1446 2.79875C50.6496 2.15 49.9748 1.805 49.1931 1.80113C48.2981 1.79788 47.3202 2.22712 46.2063 3.1125C46.2484 2.30912 46.1076 1.64575 45.7837 1.13063C45.4596 0.61475 44.7964 0 43.4784 0C41.7257 0 40.3486 0.98375 39.3424 2.12037C39.2441 1.66687 39.0767 1.24362 38.8116 0.895125C38.3663 0.309625 37.715 0 36.9283 0C35.4089 0 34.2104 1.26012 33.0178 2.78787C32.518 2.506 31.825 2.14788 31.0045 1.81175C30.6324 1.66013 30.2489 1.51987 29.8609 1.3935C28.4833 0.95175 27.1907 0.75925 26.0189 0.82125C26.0105 0.821625 25.9989 0.8225 25.988 0.8235C25.9849 0.823625 25.9818 0.82375 25.9785 0.824C25.8053 0.833875 25.6368 0.84925 25.4613 0.87125C23.4413 1.12812 21.8462 2.15163 20.7089 3.9175C18.6745 3.20487 15.3918 2.94813 13.6029 5.84775C13.331 6.28838 13.4678 6.866 13.9085 7.13788C14.062 7.2325 14.2319 7.27763 14.3999 7.27763C14.7144 7.27763 15.0215 7.1195 15.1987 6.83225C16.8707 4.12213 20.5424 5.86437 20.6958 5.93875C21.1542 6.16425 21.7085 5.98138 21.9427 5.5275C22.8044 3.85775 24.0328 2.943 25.6958 2.7315C25.8237 2.7155 25.9479 2.70412 26.0753 2.69662C26.0947 2.69587 26.1145 2.6945 26.1347 2.69287C27.0743 2.6455 28.135 2.80925 29.2843 3.17775C29.6257 3.28888 29.9664 3.4135 30.2954 3.54763C30.9124 3.80037 31.4526 4.06975 31.8701 4.29625C30.8864 5.583 29.8725 6.79462 28.8176 7.18425C28.3318 7.36363 28.0834 7.90275 28.2628 8.3885C28.4423 8.87425 28.9814 9.1225 29.4671 8.94325C31.1987 8.30375 32.5279 6.54087 33.8135 4.83612C34.8602 3.448 36.0464 1.875 36.9283 1.875C37.1798 1.875 37.2617 1.95488 37.3188 2.02975C37.7807 2.636 37.557 4.51225 37.2608 5.5885C37.1268 6.0715 37.3964 6.57438 37.8728 6.73012C38.3494 6.88613 38.8638 6.6395 39.041 6.17075C39.0573 6.12775 40.7422 1.875 43.4784 1.875C44.0368 1.875 44.1568 2.0655 44.1962 2.128C44.6308 2.81787 44.0367 4.80312 43.4987 5.927C43.2909 6.35875 43.4423 6.87762 43.8495 7.13013C44.2567 7.38263 44.7889 7.28737 45.0832 6.90938C45.0898 6.90088 45.7508 6.0555 46.6443 5.215C48.1183 3.82812 48.9066 3.676 49.1802 3.676H49.1838C49.3476 3.67688 49.4902 3.72137 49.6538 3.93587C49.8041 4.13287 49.7954 4.59863 49.6307 5.182C48.7104 8.44125 43.439 14.368 39.3092 15.9636C33.921 18.0455 26.7193 16.9206 23.255 13.4564C23.0043 13.2056 22.6337 13.1179 22.2972 13.2294C21.9607 13.341 21.7158 13.6328 21.6645 13.9836C21.6624 13.9979 21.4479 15.422 20.701 16.844C19.7745 18.6084 18.488 19.503 16.8774 19.503C16.8762 19.503 16.875 19.5031 16.8739 19.5031C16.8517 19.5026 16.8295 19.5018 16.8073 19.5018C16.3185 19.5018 15.8494 19.5868 15.4128 19.7414C14.4507 15.6751 14.0764 12.3891 14.3039 9.96638C14.3523 9.45088 13.9737 8.99375 13.4582 8.94538C12.9428 8.89713 12.4855 9.27563 12.4372 9.79113C12.1783 12.5486 12.6205 16.2634 13.748 20.8336C13.0475 21.583 12.6175 22.5884 12.6175 23.6929C12.6175 25.6969 14.0322 27.3759 15.915 27.786C15.9354 28.406 15.96 29.025 15.9918 29.6415C16.0378 30.5455 16.217 31.4361 16.5184 32.2827L12.1345 31.3326C11.003 31.0869 9.8368 31.3629 8.9348 32.09C8.0328 32.8171 7.51555 33.8983 7.51555 35.0563V36.7126H6.95442C4.9883 36.7126 3.38867 38.3122 3.38867 40.2784V42.6375C3.38867 44.6036 4.9883 46.2033 6.95442 46.2033H7.51555V56.1862C7.51555 57.9675 8.77892 59.5341 10.5195 59.9113L29.2883 63.9787C29.2894 63.979 29.2905 63.979 29.2915 63.9793C29.3174 63.9848 29.3439 63.9888 29.3706 63.992C29.3765 63.9928 29.3824 63.9941 29.3884 63.9948C29.4194 63.998 29.4509 63.9996 29.4828 63.9997C29.4842 63.9997 29.4855 64 29.4869 64H34.5119C34.5133 64 34.5147 63.9997 34.516 63.9997C34.5479 63.9996 34.5794 63.998 34.6104 63.9948C34.6164 63.9941 34.6223 63.9928 34.6283 63.992C34.6549 63.9888 34.6813 63.9848 34.7073 63.9793C34.7084 63.979 34.7095 63.979 34.7105 63.9787L53.4792 59.9113C55.2198 59.5341 56.4832 57.9675 56.4832 56.1862V54.9077C56.4832 54.39 56.0634 53.9702 55.5457 53.9702C55.0279 53.9702 54.6082 54.39 54.6082 54.9077V56.1862C54.6082 57.0912 53.9664 57.8871 53.0822 58.0788L35.4493 61.9001V36.8086L52.2623 33.1649C52.8368 33.0401 53.4291 33.1804 53.8873 33.5498C54.3456 33.9191 54.6084 34.4683 54.6084 35.0563V37.0234C53.3648 37.5809 52.4959 38.8296 52.4959 40.2783V42.6375C52.4959 44.0863 53.3648 45.335 54.6084 45.8924V51.1577C54.6084 51.6755 55.0282 52.0952 55.5459 52.0952C56.0637 52.0952 56.4834 51.6755 56.4834 51.1577V46.2033H57.0446C59.0107 46.2033 60.6103 44.6036 60.6103 42.6375V40.2783C60.6102 38.3121 59.0106 36.7126 57.0444 36.7126ZM49.0437 23.6928C49.0437 24.635 48.4769 25.4461 47.6672 25.807C47.6856 24.3935 47.6744 22.9776 47.6337 21.5614C48.4616 21.9145 49.0437 22.7368 49.0437 23.6928ZM14.4928 23.6928C14.4928 22.7378 15.0738 21.9161 15.9005 21.5624C15.8602 22.9752 15.8508 24.3929 15.8695 25.807C15.0595 25.4462 14.4928 24.6351 14.4928 23.6928ZM17.8645 29.5454C17.7239 26.8216 17.6982 24.0556 17.7852 21.3101C19.7008 21.0196 21.2708 19.7922 22.3613 17.7157C22.7103 17.0513 22.9618 16.3891 23.1393 15.8245C25.0495 17.2484 27.5709 18.2372 30.4039 18.654C33.7407 19.1449 37.1433 18.8106 39.9851 17.7127C41.7261 17.0401 43.5746 15.7619 45.2742 14.2284C45.7983 19.3206 45.9333 24.4641 45.6733 29.5454C45.6122 30.7264 45.2684 31.8747 44.6769 32.8904L34.4115 35.1151H29.5874L18.7942 32.776C18.243 31.79 17.9224 30.6815 17.8645 29.5454ZM30.4248 36.99H33.5743V62.125H30.4248V36.99ZM5.26392 42.6375V40.2783C5.26392 39.346 6.02242 38.5875 6.95467 38.5875H7.93767C8.86992 38.5875 9.62842 39.346 9.62842 40.2783V42.6375C9.62842 43.5698 8.86992 44.3283 7.93767 44.3283H6.95467C6.02242 44.3283 5.26392 43.5699 5.26392 42.6375ZM9.3908 56.1862V45.8925C10.6344 45.335 11.5033 44.0863 11.5033 42.6376V40.2784C11.5033 38.8296 10.6344 37.5809 9.3908 37.0235V35.0563C9.3908 34.4683 9.65367 33.9191 10.1119 33.5498C10.5702 33.1804 11.1624 33.0401 11.7373 33.165L28.5498 36.8086V61.9001L10.9168 58.0788C10.0325 57.8871 9.3908 57.0912 9.3908 56.1862ZM58.7352 42.6375C58.7352 43.5698 57.9767 44.3283 57.0444 44.3283H56.0614C55.1292 44.3283 54.3707 43.5698 54.3707 42.6375V40.2783C54.3707 39.346 55.1292 38.5875 56.0614 38.5875H57.0444C57.9767 38.5875 58.7352 39.346 58.7352 40.2783V42.6375Z" fill="black"/>
<defs>
<clipPath id="clip0">
<rect width="64" height="64" fill="white"/>
</clipPath>
</defs>
</svg>
