<svg width="64" height="64" viewBox="0 0 64 64" fill="none" xmlns="http://www.w3.org/2000/svg">
<g clip-path="url(#clip0)">
<path d="M12 3.75H52V26.25H12V3.75Z" fill="#FF9256"/>
<path d="M17 42V47H19.5L22 62.75H42L44.5 47H47V42C40.9907 42 23.0569 42 17 42Z" fill="#EEFAFF"/>
<path d="M37 1.25C34.2388 1.25 32 3.48875 32 6.25C32 3.48875 29.7612 1.25 27 1.25H17V21.25H26.9837C29.7462 21.25 31.9837 23.4888 31.9837 26.25C31.9837 26.1162 31.9888 25.9825 32 25.8512C32.2025 23.2762 34.3562 21.25 36.9837 21.25H47C47 16.4395 47 5.171 47 1.25H37Z" fill="#EEFAFF"/>
<path d="M42 32C36.4775 32 32 36.4775 32 42H37C42.5225 42 47 37.5225 47 32H42Z" fill="#D8EC84"/>
<path d="M22 32H17C17 37.5225 21.4775 42 27 42H32C32 36.4775 27.5225 32 22 32Z" fill="#D8EC84"/>
<path d="M47 0H37C34.9576 0 33.1413 0.98475 32 2.50437C30.8587 0.98475 29.0424 0 27 0H17C16.3098 0 15.75 0.559625 15.75 1.25V2.5H12C11.3098 2.5 10.75 3.05963 10.75 3.75V26.25C10.75 26.9404 11.3098 27.5 12 27.5H30.75V34.9376C28.6859 32.3853 25.5306 30.75 22 30.75H17C16.3098 30.75 15.75 31.3096 15.75 32C15.75 35.5306 17.3853 38.6859 19.9376 40.75H17C16.3098 40.75 15.75 41.3096 15.75 42V47C15.75 47.6904 16.3098 48.25 17 48.25H18.4328L20.7655 62.946C20.8619 63.553 21.3853 64 22 64H26.375C27.0653 64 27.625 63.4404 27.625 62.75C27.625 62.0596 27.0653 61.5 26.375 61.5H23.0672L20.964 48.25H43.036L40.9328 61.5H37.625C36.9347 61.5 36.375 62.0596 36.375 62.75C36.375 63.4404 36.9347 64 37.625 64H42C42.6147 64 43.1381 63.553 43.2345 62.946L45.5672 48.25H47C47.6903 48.25 48.25 47.6904 48.25 47V42C48.25 41.3096 47.6903 40.75 47 40.75H44.0624C46.6147 38.6859 48.25 35.5306 48.25 32C48.25 31.3096 47.6903 30.75 47 30.75H42C38.4694 30.75 35.3141 32.3853 33.25 34.9376V27.5H52C52.6903 27.5 53.25 26.9404 53.25 26.25V3.75C53.25 3.05963 52.6903 2.5 52 2.5H48.25V1.25C48.25 0.559625 47.6903 0 47 0V0ZM13.25 25V5H15.75V21.25C15.75 21.9404 16.3098 22.5 17 22.5H26.9837C28.6132 22.5 30.0027 23.5451 30.5187 25H13.25ZM26.9837 20H18.25V2.5H27C29.0677 2.5 30.75 4.18225 30.75 6.25V21.2652C29.7019 20.4714 28.3969 20 26.9837 20ZM18.339 33.25H22C26.4004 33.25 30.0526 36.5153 30.661 40.75H27C22.5996 40.75 18.9474 37.4847 18.339 33.25ZM42 33.2487L45.661 33.25C45.0526 37.4847 41.4004 40.75 37 40.75H33.339C33.9474 36.5153 37.5996 33.2487 42 33.2487ZM45.75 43.25V45.75H18.25V43.25H45.75ZM33.25 6.25C33.25 4.18225 34.9323 2.5 37 2.5H45.75V20H36.9837C35.5942 20 34.2981 20.4659 33.25 21.2507V6.25ZM50.75 5V25H33.4497C33.9694 23.5417 35.3722 22.5 36.9837 22.5H47C47.6903 22.5 48.25 21.9404 48.25 21.25V5H50.75Z" fill="black"/>
<path d="M35.7334 7.5H43.2496C43.9399 7.5 44.4996 6.94037 44.4996 6.25C44.4996 5.55963 43.9399 5 43.2496 5H35.7334C35.0431 5 34.4834 5.55963 34.4834 6.25C34.4834 6.94037 35.0431 7.5 35.7334 7.5Z" fill="black"/>
<path d="M35.7334 12.5H43.2496C43.9399 12.5 44.4996 11.9404 44.4996 11.25C44.4996 10.5596 43.9399 10 43.2496 10H35.7334C35.0431 10 34.4834 10.5596 34.4834 11.25C34.4834 11.9404 35.0431 12.5 35.7334 12.5Z" fill="black"/>
<path d="M44.4996 16.25C44.4996 15.5596 43.9399 15 43.2496 15H35.7334C35.0431 15 34.4834 15.5596 34.4834 16.25C34.4834 16.9404 35.0431 17.5 35.7334 17.5H43.2496C43.9399 17.5 44.4996 16.9404 44.4996 16.25Z" fill="black"/>
<path d="M28.2337 5H20.75C20.0598 5 19.5 5.55963 19.5 6.25C19.5 6.94037 20.0598 7.5 20.75 7.5H28.2337C28.924 7.5 29.4837 6.94037 29.4837 6.25C29.4837 5.55963 28.9241 5 28.2337 5Z" fill="black"/>
<path d="M28.2337 10H20.75C20.0598 10 19.5 10.5596 19.5 11.25C19.5 11.9404 20.0598 12.5 20.75 12.5H28.2337C28.924 12.5 29.4837 11.9404 29.4837 11.25C29.4837 10.5596 28.9241 10 28.2337 10Z" fill="black"/>
<path d="M28.2337 15H20.75C20.0598 15 19.5 15.5596 19.5 16.25C19.5 16.9404 20.0598 17.5 20.75 17.5H28.2337C28.924 17.5 29.4837 16.9404 29.4837 16.25C29.4837 15.5596 28.9241 15 28.2337 15Z" fill="black"/>
<path d="M32 64C32.6904 64 33.25 63.4404 33.25 62.75C33.25 62.0596 32.6904 61.5 32 61.5C31.3096 61.5 30.75 62.0596 30.75 62.75C30.75 63.4404 31.3096 64 32 64Z" fill="black"/>
</g>
<defs>
<clipPath id="clip0">
<rect width="64" height="64" fill="white"/>
</clipPath>
</defs>
</svg>
