<svg width="64" height="64" viewBox="0 0 64 64" fill="none" xmlns="http://www.w3.org/2000/svg">
<path d="M37 28C29.7477 26.0221 22.1607 25.5908 14.731 26.734L13 27V33H16C17.0609 33 18.0783 33.4214 18.8284 34.1716C19.5786 34.9217 20 35.9391 20 37V57C20 58.0609 19.5786 59.0783 18.8284 59.8284C18.0783 60.5786 17.0609 61 16 61H61V27L59.269 26.734C51.8393 25.5908 44.2523 26.0221 37 28Z" fill="#F9F5EF"/>
<path d="M52 3H3V11H61V3H57H52Z" fill="#06AAE9"/>
<path d="M29 15H52V21H29V15Z" fill="#F8CF26"/>
<path d="M58 15H56V21H58C58.7956 21 59.5587 20.6839 60.1213 20.1213C60.6839 19.5587 61 18.7956 61 18C61 17.2044 60.6839 16.4413 60.1213 15.8787C59.5587 15.3161 58.7956 15 58 15Z" fill="#F4462D"/>
<path d="M27 15L22 18L27 21H29V15H27Z" fill="#F9F5EF"/>
<path d="M52 15H56V21H52V15Z" fill="#F9F5EF"/>
<path d="M20 38H3V55H20V38ZM10 49V43L14 46L10 49Z" fill="#F4462D"/>
<path d="M20 37C20 35.9391 19.5786 34.9217 18.8284 34.1716C18.0783 33.4214 17.0609 33 16 33H7C5.93913 33 4.92172 33.4214 4.17157 34.1716C3.42143 34.9217 3 35.9391 3 37V38H20V37Z" fill="#06AAE9"/>
<path d="M20 57V55H3V57C3 58.0609 3.42143 59.0783 4.17157 59.8284C4.92172 60.5786 5.93913 61 7 61H16C17.0609 61 18.0783 60.5786 18.8284 59.8284C19.5786 59.0783 20 58.0609 20 57Z" fill="#06AAE9"/>
<path d="M10 49L14 46L10 43V49Z" fill="#F9F5EF"/>
<path d="M61.152 26.0119L59.422 25.7449C51.9442 24.5874 44.307 25.005 37 26.9709C29.6931 25.0041 22.0558 24.5865 14.578 25.7449L12.848 26.0119C12.612 26.0482 12.3967 26.1678 12.2412 26.349C12.0856 26.5302 12.0001 26.7611 12 26.9999V31.9999H7C4.243 31.9999 2 34.2429 2 36.9999V56.9999C2 59.7569 4.243 61.9999 7 61.9999H61C61.2652 61.9999 61.5196 61.8945 61.7071 61.707C61.8946 61.5195 62 61.2651 62 60.9999V26.9999C61.9999 26.7611 61.9144 26.5302 61.7588 26.349C61.6033 26.1678 61.388 26.0482 61.152 26.0119ZM7 33.9999H16C17.654 33.9999 19 35.3459 19 36.9999H4C4 35.3459 5.346 33.9999 7 33.9999ZM19 53.9999H4V38.9999H19V53.9999ZM4 56.9999V55.9999H19V56.9999C19 58.6539 17.654 59.9999 16 59.9999H7C5.346 59.9999 4 58.6539 4 56.9999ZM20.077 59.8749C20.134 59.7939 20.183 59.7099 20.236 59.6259C20.3989 59.3657 20.5372 59.0908 20.649 58.8049C20.725 58.6109 20.784 58.4099 20.836 58.2049C20.859 58.1119 20.888 58.0219 20.906 57.9269C20.963 57.6259 21 57.3179 21 56.9999V36.9999C21 34.2429 18.757 31.9999 16 31.9999H14V27.8569L14.883 27.7209C21.9199 26.6288 29.1058 26.9854 36 28.7689V59.9999H19.998C20.028 59.9609 20.049 59.9159 20.077 59.8749ZM60 59.9999H38V28.7699C44.8943 26.9869 52.08 26.6303 59.117 27.7219L60 27.8569V59.9999Z" fill="#1A0E06"/>
<path d="M61 2H3C2.73478 2 2.48043 2.10536 2.29289 2.29289C2.10536 2.48043 2 2.73478 2 3V11C2 11.2652 2.10536 11.5196 2.29289 11.7071C2.48043 11.8946 2.73478 12 3 12H61C61.2652 12 61.5196 11.8946 61.7071 11.7071C61.8946 11.5196 62 11.2652 62 11V3C62 2.73478 61.8946 2.48043 61.7071 2.29289C61.5196 2.10536 61.2652 2 61 2ZM60 10H4V4H6V6H8V4H11V8H13V4H16V6H18V4H21V8H23V4H26V6H28V4H31V8H33V4H36V6H38V4H41V8H43V4H46V6H48V4H51V8H53V4H56V6H58V4H60V10Z" fill="#1A0E06"/>
<path d="M57.9997 14H26.9997C26.8182 13.9998 26.6401 14.0493 26.4847 14.143L21.4847 17.143C21.3368 17.2319 21.2145 17.3575 21.1296 17.5077C21.0446 17.6579 21 17.8275 21 18C21 18.1725 21.0446 18.3421 21.1296 18.4923C21.2145 18.6425 21.3368 18.7681 21.4847 18.857L26.4847 21.857C26.6401 21.9507 26.8182 22.0002 26.9997 22H57.9997C60.2057 22 61.9997 20.206 61.9997 18C61.9997 15.794 60.2057 14 57.9997 14ZM50.9997 16V20H29.9997V16H50.9997ZM23.9427 18L27.2767 16H27.9997V20H27.2767L23.9427 18ZM52.9997 20V16H54.9997V20H52.9997ZM57.9997 20H56.9997V16H57.9997C59.1027 16 59.9997 16.897 59.9997 18C59.9997 19.103 59.1027 20 57.9997 20Z" fill="#1A0E06"/>
<path d="M23 32H33V34H23V32Z" fill="#1A0E06"/>
<path d="M23 36H33V38H23V36Z" fill="#1A0E06"/>
<path d="M23 44H33V46H23V44Z" fill="#1A0E06"/>
<path d="M9.553 49.8949C9.71936 49.9769 9.90514 50.0115 10.0899 49.9947C10.2746 49.978 10.4511 49.9105 10.6 49.7999L14.6 46.7999C14.7246 46.707 14.8257 46.5863 14.8954 46.4474C14.9651 46.3085 15.0013 46.1553 15.0013 45.9999C15.0013 45.8445 14.9651 45.6913 14.8954 45.5524C14.8257 45.4135 14.7246 45.2928 14.6 45.1999L10.6 42.1999C10.4513 42.0889 10.2747 42.0213 10.0899 42.0049C9.90507 41.9884 9.71931 42.0236 9.55334 42.1066C9.38737 42.1896 9.24773 42.3171 9.15002 42.4748C9.05231 42.6326 9.00037 42.8144 9 42.9999V48.9999C9 49.3789 9.214 49.7249 9.553 49.8949ZM11 44.9999L12.333 45.9999L11 46.9999V44.9999Z" fill="#1A0E06"/>
<path d="M41 32H57V34H41V32Z" fill="#1A0E06"/>
<path d="M41 36H45V38H41V36Z" fill="#1A0E06"/>
<path d="M23 48H33V50H23V48Z" fill="#1A0E06"/>
<path d="M23 52H26V54H23V52Z" fill="#1A0E06"/>
<path d="M23 40H27V42H23V40Z" fill="#1A0E06"/>
<path d="M29 40H33V42H29V40Z" fill="#1A0E06"/>
<path d="M47 36H57V38H47V36Z" fill="#1A0E06"/>
</svg>
