<svg width="64" height="64" viewBox="0 0 64 64" fill="none" xmlns="http://www.w3.org/2000/svg">
<path d="M50.0004 50V54H36.0004H35.5204C35.3304 54 35.1403 54.02 34.9403 54.05C34.9803 53.87 35.0004 53.69 35.0004 53.5V52C35.0004 51.32 34.9504 50.65 34.8604 50H50.0004Z" fill="#CF9E76"/>
<path d="M37.81 61.56C39.11 60.91 40 59.56 40 58C40 56.9 39.55 55.9 38.83 55.17C38.1 54.45 37.1 54 36 54H50V58L49.54 58.46C47.27 60.73 44.2 62 41 62C39.91 62 38.84 61.85 37.81 61.57V61.56Z" fill="#838F9B"/>
<path d="M49.9994 46V50H34.8594C34.6594 48.59 34.2394 47.25 33.6494 46H38.9994H42.9994H49.9994Z" fill="#CF9E76"/>
<path d="M55.85 8.15C52.05 4.35 46.8 2 41 2C35.2 2 29.95 4.35 26.15 8.15C22.35 11.95 20 17.2 20 23C20 24.03 20.08 25.05 20.22 26.05C20.48 26.02 20.74 26 21 26C24.31 26 27 28.69 27 32C27 35.31 24.31 38 21 38C26.58 38 31.4 41.27 33.65 46H39H43H50L57.8 35.6C60.53 31.96 62 27.54 62 23C62 17.2 59.65 11.95 55.85 8.15Z" fill="#FFEAA7"/>
<path d="M52.5404 15.46C53.4404 16.37 54.0004 17.62 54.0004 19C54.0004 21.76 51.7604 24 49.0004 24H43.6904L43.8504 18.84C43.9304 16.14 46.1504 14 48.8504 14H49.0004C50.3804 14 51.6304 14.56 52.5404 15.46Z" fill="#FCD770"/>
<path d="M38.15 18.84L38.31 24H33C31.62 24 30.37 23.44 29.46 22.54C28.56 21.63 28 20.38 28 19C28 16.24 30.24 14 33 14H33.15C35.85 14 38.07 16.14 38.15 18.84Z" fill="#FCD770"/>
<path d="M6.54 54C6.7 54 6.87 54.01 7.04 54.04C7.17 54.05 7.31 54.08 7.45 54.11L15.5 56L21.87 57.5L22.28 57.6C23.29 57.83 24 58.73 24 59.77C24 60.38 23.75 60.94 23.35 61.35C22.94 61.75 22.38 62 21.77 62H20H6C3.79 62 2 60.21 2 58C2 56.9 2.45 55.9 3.17 55.17C3.9 54.45 4.9 54 6 54H6.54Z" fill="#FCD770"/>
<path d="M35.9995 54C37.0995 54 38.0995 54.45 38.8295 55.17C39.5495 55.9 39.9995 56.9 39.9995 58C39.9995 59.56 39.1095 60.91 37.8095 61.56C37.2595 61.84 36.6495 62 35.9995 62H21.7695C22.3795 62 22.9395 61.75 23.3495 61.35C23.7495 60.94 23.9995 60.38 23.9995 59.77C23.9995 58.73 23.2895 57.83 22.2795 57.6L21.8695 57.5L34.4895 54.14C34.6395 54.1 34.7895 54.07 34.9395 54.05C35.1395 54.02 35.3295 54 35.5195 54H35.9995Z" fill="#FCD770"/>
<path d="M15.5 56L7.45 54.11C7.31 54.08 7.17 54.05 7.04 54.04L7.05 54C7.02 53.84 7 53.67 7 53.5V52C7 48.14 8.57 44.64 11.1 42.1C13.64 39.57 17.14 38 21 38C26.58 38 31.4 41.27 33.65 46C34.24 47.25 34.66 48.59 34.86 50C34.95 50.65 35 51.32 35 52V53.5C35 53.69 34.98 53.87 34.94 54.05C34.79 54.07 34.64 54.1 34.49 54.14L21.87 57.5L15.5 56Z" fill="#FCD770"/>
<path d="M21 26C24.31 26 27 28.69 27 32C27 35.31 24.31 38 21 38C17.69 38 15 35.31 15 32C15 28.95 17.28 26.43 20.22 26.05C20.48 26.02 20.74 26 21 26Z" fill="#FCD770"/>
<path d="M29.6787 11.706C32.7047 8.671 36.7267 7 41.0007 7V5C36.1907 5 31.6667 6.88 28.2627 10.294L29.6787 11.706Z" fill="black"/>
<path d="M42.8838 7.11002C43.5108 7.18302 44.1438 7.29702 44.7658 7.44702L45.2348 5.50302C44.5358 5.33402 43.8228 5.20702 43.1168 5.12402L42.8838 7.11002Z" fill="black"/>
<path d="M57.0002 23C57.0002 26.439 55.8632 29.848 53.8002 32.6L50.9502 36.4L52.5502 37.6L55.4002 33.8C57.7222 30.705 59.0002 26.869 59.0002 23H57.0002Z" fill="black"/>
<path d="M47.9473 40.3879L49.4473 38.3879L51.0473 39.5879L49.5473 41.5879L47.9473 40.3879Z" fill="black"/>
<path d="M63 23C63 10.869 53.131 1 41 1C28.869 1 19 10.869 19 23C19 23.754 19.053 24.51 19.131 25.261C16.177 26.082 14 28.788 14 32C14 34.293 15.114 36.326 16.823 37.604C10.58 39.418 6 45.18 6 52V53C3.243 53 1 55.243 1 58C1 60.757 3.243 63 6 63H20H21.768H36C36.673 63 37.314 62.862 37.901 62.62C38.915 62.868 39.954 63 41 63C44.491 63 47.773 61.64 50.242 59.172L51 58.415V46.333L58.6 36.2C61.438 32.417 63 27.729 63 23ZM16 32C16 29.243 18.243 27 21 27C23.757 27 26 29.243 26 32C26 34.757 23.757 37 21 37C18.243 37 16 34.757 16 32ZM21 39C28.168 39 34 44.832 34 52V53.232L24.046 55.886C24.633 55.26 25 54.424 25 53.5C25 52.961 24.867 52.456 24.649 52H28C29.654 52 31 50.654 31 49V48H29V49C29 49.551 28.552 50 28 50H21.5H20H14C13.448 50 13 49.551 13 49V48H11V49C11 50.654 12.346 52 14 52H20H21.5C22.327 52 23 52.673 23 53.5C23 54.327 22.327 55 21.5 55H15.617L8 53.208V52C8 44.832 13.832 39 21 39ZM39.344 25H42.656L42.031 45H39.969L39.344 25ZM49 47V49H35.698C35.558 48.313 35.356 47.65 35.125 47H49ZM36 53V52C36 51.662 35.971 51.332 35.949 51H49V53H36ZM20 61H6C4.346 61 3 59.654 3 58C3 56.346 4.346 55 6 55H6.536C6.766 55 6.998 55.027 7.223 55.08L22.05 58.568C22.61 58.7 23 59.193 23 59.768C23 60.447 22.447 61 21.768 61H20ZM24.753 61C24.911 60.62 25 60.204 25 59.768C25 59.061 24.768 58.405 24.377 57.868L34.751 55.102C35.003 55.034 35.264 55 35.524 55H36C37.654 55 39 56.346 39 58C39 59.654 37.654 61 36 61H24.753ZM48.828 57.757C46.737 59.848 43.957 61 41 61C40.674 61 40.352 60.963 40.028 60.935C40.632 60.108 41 59.1 41 58C41 56.87 40.609 55.838 39.974 55H49V57.585L48.828 57.757ZM49.5 45H44.031L44.657 25H49C52.309 25 55 22.309 55 19C55 15.691 52.309 13 49 13H48.846C45.585 13 42.95 15.553 42.849 18.812L42.718 23H39.281L39.151 18.812C39.05 15.553 36.415 13 33.154 13H33C29.691 13 27 15.691 27 19C27 22.309 29.691 25 33 25H37.344L37.969 45H34.257C32.374 41.448 29.107 38.746 25.178 37.604C26.886 36.326 28 34.293 28 32C28 28.178 24.92 25.067 21.114 25.006C21.046 24.339 21 23.669 21 23C21 11.972 29.972 3 41 3C52.028 3 61 11.972 61 23C61 27.299 59.579 31.561 57 35L49.5 45ZM44.72 23L44.849 18.875C44.916 16.702 46.672 15 48.846 15H49C51.206 15 53 16.794 53 19C53 21.206 51.206 23 49 23H44.72ZM37.281 23H33C30.794 23 29 21.206 29 19C29 16.794 30.794 15 33 15H33.154C35.328 15 37.084 16.702 37.152 18.875L37.281 23Z" fill="black"/>
</svg>
