<svg width="64" height="64" viewBox="0 0 64 64" fill="none" xmlns="http://www.w3.org/2000/svg">
<path d="M3 47.0002V51.0002H54C55.65 51.0002 57 52.3502 57 54.0002C57 55.6502 55.65 57.0002 54 57.0002H3V61.0002H54C55.8565 61.0002 57.637 60.2627 58.9497 58.9499C60.2625 57.6371 61 55.8567 61 54.0002C61 52.1436 60.2625 50.3632 58.9497 49.0504C57.637 47.7376 55.8565 47.0002 54 47.0002H3Z" fill="#06AAE9"/>
<path d="M13 33.0002V37.0002H54C55.65 37.0002 57 38.3502 57 40.0002C57 41.6502 55.65 43.0002 54 43.0002H13V47.0002H54C54.9193 47.0002 55.8295 46.8191 56.6788 46.4673C57.5281 46.1155 58.2997 45.5999 58.9497 44.9499C59.5998 44.2999 60.1154 43.5282 60.4672 42.6789C60.8189 41.8297 61 40.9194 61 40.0002C61 39.0809 60.8189 38.1706 60.4672 37.3214C60.1154 36.4721 59.5998 35.7004 58.9497 35.0504C58.2997 34.4004 57.5281 33.8848 56.6788 33.533C55.8295 33.1812 54.9193 33.0002 54 33.0002H13Z" fill="#F4462D"/>
<path d="M27 19.0002H23V23.0002H54C55.65 23.0002 57 24.3502 57 26.0002C57 27.6502 55.65 29.0002 54 29.0002H23V33.0002H54C55.8565 33.0002 57.637 32.2627 58.9497 30.9499C60.2625 29.6371 61 27.8567 61 26.0002C61 24.1436 60.2625 22.3632 58.9497 21.0504C57.637 19.7377 55.8565 19.0002 54 19.0002H27Z" fill="#F8CF26"/>
<path d="M27 11.0003L33 7.00024L27 3.00024V11.0003Z" fill="#F4462D"/>
<path d="M57 54.0002C57 52.3502 55.65 51.0002 54 51.0002H3C4.65 51.0002 6 52.3502 6 54.0002C6 55.6502 4.65 57.0002 3 57.0002H54C55.65 57.0002 57 55.6502 57 54.0002Z" fill="#F9F5EF"/>
<path d="M57 26.0002C57 24.3502 55.65 23.0002 54 23.0002H23C24.65 23.0002 26 24.3502 26 26.0002C26 27.6502 24.65 29.0002 23 29.0002H54C55.65 29.0002 57 27.6502 57 26.0002Z" fill="#F9F5EF"/>
<path d="M57 40.0002C57 38.3502 55.65 37.0002 54 37.0002H13C14.65 37.0002 16 38.3502 16 40.0002C16 41.6502 14.65 43.0002 13 43.0002H54C55.65 43.0002 57 41.6502 57 40.0002Z" fill="#F9F5EF"/>
<path d="M55 9.00024L61 7.00024L49 3.00024L37 7.00024L43 9.00024V19.0003H55V9.00024Z" fill="#06AAE9"/>
<path d="M61.316 6.05115L49.316 2.05115C49.1105 1.98318 48.8885 1.98318 48.683 2.05115L36.683 6.05115C36.4837 6.11748 36.3103 6.24489 36.1875 6.41529C36.0647 6.5857 35.9987 6.79046 35.9988 7.00051C35.9989 7.21056 36.0651 7.41525 36.1881 7.58553C36.3111 7.75581 36.4846 7.88303 36.684 7.94915L42 9.72115V18.0002H28V11.5351L33.555 7.83215C33.6917 7.74067 33.8038 7.6169 33.8814 7.47178C33.9589 7.32666 33.9994 7.16467 33.9994 7.00015C33.9994 6.83563 33.9589 6.67364 33.8814 6.52852C33.8038 6.3834 33.6917 6.25963 33.555 6.16815L27.555 2.16815C27.4044 2.06767 27.2293 2.00996 27.0485 2.00118C26.8677 1.99239 26.6879 2.03287 26.5282 2.11828C26.3686 2.20369 26.2352 2.33083 26.1421 2.48614C26.0491 2.64145 26 2.81911 26 3.00015V18.0002H23C22.7348 18.0002 22.4804 18.1055 22.2929 18.293C22.1054 18.4806 22 18.7349 22 19.0002V23.0002C22 23.2654 22.1054 23.5197 22.2929 23.7073C22.4804 23.8948 22.7348 24.0002 23 24.0002C24.103 24.0002 25 24.8972 25 26.0002C25 27.1032 24.103 28.0002 23 28.0002C22.7348 28.0002 22.4804 28.1055 22.2929 28.293C22.1054 28.4806 22 28.7349 22 29.0002V32.0002H13C12.7348 32.0002 12.4804 32.1055 12.2929 32.293C12.1054 32.4806 12 32.7349 12 33.0002V37.0001C12 37.2654 12.1054 37.5197 12.2929 37.7073C12.4804 37.8948 12.7348 38.0001 13 38.0001C14.103 38.0001 15 38.8971 15 40.0001C15 41.1031 14.103 42.0001 13 42.0001C12.7348 42.0001 12.4804 42.1055 12.2929 42.293C12.1054 42.4806 12 42.7349 12 43.0001V46.0001H6V45.0001H4V46.0001H3C2.73478 46.0001 2.48043 46.1055 2.29289 46.293C2.10536 46.4806 2 46.7349 2 47.0001V51.0001C2 51.2654 2.10536 51.5197 2.29289 51.7073C2.48043 51.8948 2.73478 52.0001 3 52.0001C4.103 52.0001 5 52.8971 5 54.0001C5 55.1031 4.103 56.0001 3 56.0001C2.73478 56.0001 2.48043 56.1055 2.29289 56.293C2.10536 56.4806 2 56.7349 2 57.0001V61.0001C2 61.2654 2.10536 61.5197 2.29289 61.7073C2.48043 61.8948 2.73478 62.0001 3 62.0001H54C58.411 62.0001 62 58.4111 62 54.0001C61.9987 52.5703 61.6144 51.1669 60.887 49.9359C60.1597 48.7048 59.1158 47.6911 57.864 47.0001C60.327 45.6351 62 43.0101 62 40.0001C62 36.9902 60.327 34.3652 57.864 33.0002C59.1158 32.3092 60.1597 31.2955 60.887 30.0644C61.6144 28.8334 61.9987 27.43 62 26.0002C62 22.2812 59.445 19.1552 56 18.2632V9.72115L60 8.38815V13.0001H62V7.00015C62 6.79018 61.934 6.58553 61.8112 6.4152C61.6885 6.24487 61.5152 6.1175 61.316 6.05115ZM28 4.86915L31.197 7.00015L28 9.13115V4.86915ZM60 54.0001C60 57.3092 57.309 60.0001 54 60.0001H4V58.0001H54C56.206 58.0001 58 56.2062 58 54.0001C58 51.7941 56.206 50.0001 54 50.0001H4V48.0001H54C57.309 48.0001 60 50.6911 60 54.0001ZM6.463 52.0001H54C55.103 52.0001 56 52.8971 56 54.0001C56 55.1031 55.103 56.0001 54 56.0001H6.463C6.805 55.4111 7 54.7281 7 54.0001C7 53.2721 6.805 52.5891 6.463 52.0001ZM60 40.0001C60 43.3092 57.309 46.0001 54 46.0001H14V44.0001H54C56.206 44.0001 58 42.2062 58 40.0001C58 37.7941 56.206 36.0001 54 36.0001H14V34.0001H54C57.309 34.0001 60 36.6911 60 40.0001ZM16.463 38.0001H54C55.103 38.0001 56 38.8971 56 40.0001C56 41.1031 55.103 42.0001 54 42.0001H16.463C16.805 41.4111 17 40.7281 17 40.0001C17 39.2721 16.805 38.5891 16.463 38.0001ZM60 26.0002C60 29.3092 57.309 32.0002 54 32.0002H24V30.0002H54C56.206 30.0002 58 28.2062 58 26.0002C58 23.7942 56.206 22.0002 54 22.0002H24V20.0002H54C57.309 20.0002 60 22.6912 60 26.0002ZM26.463 24.0002H54C55.103 24.0002 56 24.8972 56 26.0002C56 27.1032 55.103 28.0002 54 28.0002H26.463C26.805 27.4111 27 26.7282 27 26.0002C27 25.2722 26.805 24.5892 26.463 24.0002ZM54 18.0002H44V10.3881L48.684 11.9492C48.8892 12.0171 49.1108 12.0171 49.316 11.9492L54 10.3881V18.0002ZM54.684 8.05115L49 9.94615L43.316 8.05115L40.162 7.00015L49 4.05415L57.838 7.00015L54.684 8.05115Z" fill="#1A0E06"/>
<path d="M4 37.0901H6V39.0672H4V37.0901Z" fill="#1A0E06"/>
<path d="M10.1143 32.123L11.8533 32.818L12.5953 30.96L10.7363 30.219L10.1143 32.123Z" fill="#1A0E06"/>
<path d="M4 41.0452H6V43.0232H4V41.0452Z" fill="#1A0E06"/>
<path d="M8.58206 31.9341L8.30106 29.9541C7.48256 30.0727 6.70576 30.3907 6.03906 30.8801L7.22306 32.4921C7.62312 32.1969 8.08998 32.0052 8.58206 31.9341Z" fill="#1A0E06"/>
<path d="M6.00004 34.9082C6.00004 34.4532 6.09603 34.0202 6.28603 33.6222L4.47904 32.7642C4.16089 33.434 3.9972 34.1666 4.00004 34.9082V35.1132H6.00004V34.9082Z" fill="#1A0E06"/>
<path d="M21.9029 14.7842L21.2419 15.7392L20.6729 16.3542L22.1179 17.6922L23.4779 16.2262L21.9989 14.8572L21.9029 14.7842Z" fill="#1A0E06"/>
<path d="M17.9098 16.0601C18.3798 15.8741 18.8758 15.8082 19.3748 15.8712L19.6258 13.8871C18.7961 13.7827 17.9535 13.8904 17.1768 14.2001L17.9098 16.0601Z" fill="#1A0E06"/>
<path d="M14 24.0251H16V26.0191H14V24.0251Z" fill="#1A0E06"/>
<path d="M14 28.0132H16V30.0072H14V28.0132Z" fill="#1A0E06"/>
<path d="M16.6967 16.9242L15.1747 15.6272C14.6312 16.2662 14.2601 17.0335 14.0967 17.8562L16.0587 18.2452C16.1567 17.7502 16.3717 17.3062 16.6967 16.9242Z" fill="#1A0E06"/>
<path d="M14 20.0381H16V22.0321H14V20.0381Z" fill="#1A0E06"/>
</svg>
