<svg width="64" height="64" viewBox="0 0 64 64" fill="none" xmlns="http://www.w3.org/2000/svg">
<path d="M31.9951 6.25H62.7451V30.25H31.9951V6.25Z" fill="#91DEF5"/>
<path d="M31.9933 30.145C31.9378 28.5872 30.61 27.375 29.0511 27.375H28.2451C26.5883 27.375 25.2451 26.0319 25.2451 24.375V20.3269C25.2451 15.9087 21.6634 12.3269 17.2451 12.3269H13.2451H9.25488C4.83663 12.3269 1.25488 15.9087 1.25488 20.3269V35.75C1.25488 37.3379 2.54201 38.625 4.12988 38.625C5.71776 38.625 7.00488 37.3379 7.00488 35.75V28.1875L7.00613 28.187V32H19.4088V23.16L19.4951 23.125V24.125C19.4951 29.0955 23.5245 33.125 28.4951 33.125H29.1201C30.7428 33.125 32.0515 31.7807 31.9933 30.145Z" fill="#FFCB7C"/>
<path d="M19.5059 32.0159V59.625C19.5059 61.3509 18.1067 62.75 16.3809 62.75C14.655 62.75 13.2559 61.3509 13.2559 59.625V42.4611V39.8249V59.625C13.2559 61.3509 11.8567 62.75 10.1309 62.75C8.40498 62.75 7.00586 61.3509 7.00586 59.625V32.0159H19.5059Z" fill="#8690A6"/>
<path d="M13.2454 12.3269C10.5264 12.3269 8.32227 10.1228 8.32227 7.40375V6.173C8.32227 3.45412 10.5264 1.25 13.2454 1.25C15.9644 1.25 18.1685 3.45412 18.1685 6.17312V7.40387C18.1685 10.1227 15.9643 12.3269 13.2454 12.3269Z" fill="#CC9E83"/>
<path d="M47.3698 22.5739L50.5303 24.8807C51.3379 25.4702 52.4272 24.6788 52.1161 23.7286L50.8988 20.0099L54.0789 17.7101C54.8882 17.1248 54.4742 15.8458 53.4754 15.8458H49.5508L48.3497 12.1298C48.0423 11.1791 46.6973 11.1791 46.3899 12.1298L45.1888 15.8458H41.2642C40.2654 15.8458 39.8514 17.1248 40.6607 17.7101L43.8408 20.0099L42.6236 23.7286C42.3126 24.6788 43.4017 25.4702 44.2093 24.8807L47.3698 22.5739Z" fill="#FFCB7C"/>
<path d="M62.7451 5H33.2451V1.25C33.2451 0.559625 32.6854 0 31.9951 0C31.3049 0 30.7451 0.559625 30.7451 1.25V26.4678C30.2301 26.2478 29.6613 26.125 29.0619 26.125H28.2559C27.2909 26.125 26.5059 25.34 26.5059 24.375V20.3269C26.5059 15.5345 22.8423 11.5822 18.1688 11.1224C18.9524 10.0874 19.4183 8.79925 19.4183 7.40387V6.17312C19.4183 2.76925 16.6489 0 13.2451 0C9.84138 0 7.07201 2.76925 7.07201 6.17312V7.40387C7.07201 8.79988 7.53838 10.0886 8.32263 11.1239C3.65826 11.5927 0.00488281 15.5411 0.00488281 20.327V35.75C0.00488281 38.0245 1.85538 39.875 4.12988 39.875C4.70713 39.875 5.25676 39.7554 5.75613 39.5404V59.625C5.75613 62.0374 7.71876 64 10.1311 64C11.3544 64 12.4614 63.4948 13.2561 62.6826C14.0509 63.4946 15.1579 64 16.3811 64C18.7935 64 20.7561 62.0374 20.7561 59.625V30.822C22.637 32.9958 25.4125 34.375 28.5059 34.375H29.1309C29.696 34.375 30.2421 34.263 30.7451 34.0493V62.75C30.7451 63.4403 31.3049 64 31.9951 64C32.6854 64 33.2451 63.4403 33.2451 62.75V31.5H41.7451C42.4354 31.5 42.9951 30.9404 42.9951 30.25C42.9951 29.5596 42.4354 29 41.7451 29H33.2451V7.5H61.4951V29H52.9951C52.3049 29 51.7451 29.5596 51.7451 30.25C51.7451 30.9404 52.3049 31.5 52.9951 31.5H62.7451C63.4354 31.5 63.9951 30.9404 63.9951 30.25V6.25C63.9951 5.55963 63.4354 5 62.7451 5ZM9.57201 6.17312C9.57201 4.14775 11.2198 2.5 13.2451 2.5C15.2705 2.5 16.9183 4.14775 16.9183 6.17312V7.40387C16.9183 9.42925 15.2705 11.0769 13.2451 11.0769C11.2198 11.0769 9.57201 9.42925 9.57201 7.40387V6.17312ZM16.3811 61.5C15.3473 61.5 14.5061 60.6589 14.5061 59.625V39.825C14.5061 39.1348 13.9464 38.575 13.2561 38.575C12.5659 38.575 12.0061 39.1348 12.0061 39.825V59.625C12.0061 60.6589 11.165 61.5 10.1311 61.5C9.09726 61.5 8.25613 60.6589 8.25613 59.625V33.25H18.2561V59.625C18.2561 60.6589 17.415 61.5 16.3811 61.5ZM29.1309 31.875H28.5059C24.2358 31.875 20.7614 28.4036 20.7561 24.1346V23.125C20.7561 22.4346 20.1964 21.875 19.5061 21.875H19.506H19.5059C18.8156 21.875 18.2559 22.4346 18.2559 23.125L18.2561 30.75H8.25613V23.125C8.25613 22.4346 7.69638 21.875 7.00613 21.875C6.31588 21.875 5.75613 22.4346 5.75613 23.125L5.75488 35.75C5.75488 36.646 5.02588 37.375 4.12988 37.375C3.23388 37.375 2.50488 36.646 2.50488 35.75V20.3269C2.50488 16.6049 5.53301 13.5769 9.25488 13.5769H17.2559C20.9778 13.5769 24.0059 16.6049 24.0059 20.3269V24.375C24.0059 26.7185 25.9124 28.625 28.2559 28.625H29.0619C29.9648 28.625 30.7241 29.3269 30.7548 30.1895C30.7708 30.6359 30.6094 31.058 30.3004 31.3781C29.9913 31.6985 29.5759 31.875 29.1309 31.875Z" fill="black"/>
<path d="M53.3041 23.3396L52.3707 20.4881L54.8116 18.7229C55.6153 18.1416 55.9499 17.117 55.6444 16.1734C55.3391 15.2297 54.4673 14.5957 53.4754 14.5957H50.4604L49.5391 11.7454C49.2339 10.8011 48.3621 10.1667 47.3698 10.1667C46.3776 10.1667 45.5057 10.8012 45.2006 11.7454L44.2792 14.5959H41.2642C40.2723 14.5959 39.4007 15.2299 39.0952 16.1735C38.7897 17.1171 39.1243 18.1417 39.9281 18.723L42.3689 20.4882L41.4356 23.3396C41.1266 24.2832 41.4588 25.3095 42.2619 25.8932C43.0653 26.477 44.1442 26.476 44.9463 25.8905L47.3698 24.1216L49.7934 25.8905C50.1952 26.1837 50.6662 26.3304 51.1374 26.3304C51.6071 26.3304 52.0767 26.1847 52.4777 25.8932C53.2808 25.3094 53.6129 24.2831 53.3041 23.3396ZM49.7108 20.3987L50.7156 23.4685L48.1067 21.5642C47.8872 21.404 47.6284 21.3239 47.3697 21.3239C47.1109 21.3239 46.8522 21.404 46.6327 21.5642L44.0238 23.4684L45.0286 20.3987C45.1977 19.8821 45.0136 19.3155 44.5731 18.997L41.9441 17.0957H45.1886C45.7308 17.0957 46.2112 16.7461 46.3781 16.2302L47.3697 13.1625L48.3613 16.2302C48.5282 16.7461 49.0086 17.0957 49.5508 17.0957H52.7953L50.1663 18.997C49.7259 19.3155 49.5418 19.8821 49.7108 20.3987Z" fill="black"/>
<path d="M47.3701 29C47.0414 29 46.7189 29.1337 46.4864 29.3662C46.254 29.5987 46.1201 29.9212 46.1201 30.25C46.1201 30.5788 46.2539 30.9013 46.4864 31.1338C46.7189 31.3663 47.0414 31.5 47.3701 31.5C47.6989 31.5 48.0214 31.3663 48.2539 31.1338C48.4862 30.9013 48.6201 30.5788 48.6201 30.25C48.6201 29.9212 48.4864 29.5987 48.2539 29.3662C48.0214 29.1337 47.6989 29 47.3701 29Z" fill="black"/>
</svg>
