<svg width="64" height="64" viewBox="0 0 64 64" fill="none" xmlns="http://www.w3.org/2000/svg">
<path d="M57 5L54 6L50 19V24L49.414 25.172C49.7997 24.1589 49.9983 23.0841 50 22C49.9965 21.4995 49.9517 21.0001 49.866 20.507C49.153 16.248 45.461 13 41 13C39.4357 13.0002 37.8985 13.408 36.5399 14.1834C35.1813 14.9587 34.0482 16.0748 33.2525 17.4216C32.4567 18.7683 32.0257 20.2992 32.0019 21.8633C31.9782 23.4274 32.3625 24.9707 33.117 26.341C33.2819 26.6379 33.4642 26.9247 33.663 27.2L33.693 27.24C33.883 27.505 34.088 27.758 34.306 28C34.401 28.106 34.507 28.202 34.607 28.303C34.721 28.418 34.829 28.538 34.949 28.647C34.83 28.538 34.721 28.418 34.607 28.303L34.168 28.083L34.305 28L30.842 30.085L31.156 29.896L28 32L26.31 34.535C26.306 34.547 26.299 34.558 26.295 34.57C26.103 35.1581 26.0035 35.7724 26 36.391V48C26 48.7957 26.3161 49.5587 26.8787 50.1213C27.4413 50.6839 28.2044 51 29 51H32V62H55V28L61 9L60 6L57 5ZM48.582 26.836L48 28L47.116 28.589C47.6772 28.0693 48.1698 27.4803 48.582 26.836ZM41.582 30.971C41.833 30.955 42.08 30.928 42.325 30.892L42 31L41.582 30.971ZM50 50H43.221C43.341 49.867 43.449 49.726 43.544 49.573L43.547 49.567C43.638 49.419 43.72 49.264 43.785 49.1C43.803 49.056 43.812 49.008 43.828 48.963C43.871 48.836 43.916 48.71 43.942 48.576C44.027 48.1416 44.0148 47.6938 43.9063 47.2647C43.7978 46.8356 43.5957 46.4358 43.3145 46.094C43.0333 45.7522 42.68 45.4769 42.2798 45.2877C41.8797 45.0986 41.4426 45.0003 41 45H38V40C38 40.5304 38.2107 41.0391 38.5858 41.4142C38.9609 41.7893 39.4696 42 40 42H50V50Z" fill="#F9F5EF"/>
<path d="M38 40V45H41C41.4426 45.0003 41.8797 45.0986 42.2798 45.2877C42.68 45.4769 43.0333 45.7522 43.3145 46.094C43.5957 46.4358 43.7978 46.8356 43.9063 47.2647C44.0148 47.6938 44.027 48.1416 43.942 48.576C43.916 48.71 43.871 48.836 43.828 48.963C43.812 49.008 43.803 49.056 43.785 49.1C43.7198 49.2625 43.6401 49.4188 43.547 49.567L43.544 49.573C43.4493 49.7247 43.3412 49.8676 43.221 50H50V42H40C39.4696 42 38.9609 41.7893 38.5858 41.4142C38.2107 41.0391 38 40.5304 38 40Z" fill="#06AAE9"/>
<path d="M11 7C9.93913 7 8.92172 6.57857 8.17157 5.82843C7.42143 5.07828 7 4.06087 7 3C7 4.06087 6.57857 5.07828 5.82843 5.82843C5.07828 6.57857 4.06087 7 3 7C4.06087 7 5.07828 7.42143 5.82843 8.17157C6.57857 8.92172 7 9.93913 7 11C7 9.93913 7.42143 8.92172 8.17157 8.17157C8.92172 7.42143 9.93913 7 11 7Z" fill="#F8CF26"/>
<path d="M23 18C21.9391 18 20.9217 17.5786 20.1716 16.8284C19.4214 16.0783 19 15.0609 19 14C19 15.0609 18.5786 16.0783 17.8284 16.8284C17.0783 17.5786 16.0609 18 15 18C16.0609 18 17.0783 18.4214 17.8284 19.1716C18.5786 19.9217 19 20.9391 19 22C19 20.9391 19.4214 19.9217 20.1716 19.1716C20.9217 18.4214 21.9391 18 23 18Z" fill="#F8CF26"/>
<path d="M29 51.0001C28.2044 51.0001 27.4413 50.684 26.8787 50.1214C26.3161 49.5588 26 48.7958 26 48.0001V36.3911C26 35.7631 26.109 35.1521 26.295 34.5701C26.299 34.5581 26.306 34.5471 26.31 34.5351C26.7514 33.1634 27.6733 31.9973 28.906 31.2511L30.843 30.0851L34.305 28.0001C34.0873 27.7578 33.8827 27.5042 33.692 27.2401L33.662 27.2001C33.4632 26.9248 33.2809 26.638 33.116 26.3411C29.1918 26.1071 25.2638 26.7331 21.6066 28.1752C17.9495 29.6173 14.6514 31.8407 11.943 34.6901L3 42.0001L10.543 50.3151C14.084 55.6261 19.75 59.2361 26 60.0001L32 61.0001V51.0001H29Z" fill="#F4462D"/>
<path d="M30.8423 30.085L28.9053 31.251L30.8423 30.085Z" fill="#F9F5EF"/>
<path d="M11 6C9.346 6 8 4.654 8 3C8 2.73478 7.89464 2.48043 7.70711 2.29289C7.51957 2.10536 7.26522 2 7 2C6.73478 2 6.48043 2.10536 6.29289 2.29289C6.10536 2.48043 6 2.73478 6 3C6 4.654 4.654 6 3 6C2.73478 6 2.48043 6.10536 2.29289 6.29289C2.10536 6.48043 2 6.73478 2 7C2 7.26522 2.10536 7.51957 2.29289 7.70711C2.48043 7.89464 2.73478 8 3 8C4.654 8 6 9.346 6 11C6 11.2652 6.10536 11.5196 6.29289 11.7071C6.48043 11.8946 6.73478 12 7 12C7.26522 12 7.51957 11.8946 7.70711 11.7071C7.89464 11.5196 8 11.2652 8 11C8 9.346 9.346 8 11 8C11.2652 8 11.5196 7.89464 11.7071 7.70711C11.8946 7.51957 12 7.26522 12 7C12 6.73478 11.8946 6.48043 11.7071 6.29289C11.5196 6.10536 11.2652 6 11 6ZM7 8.003C6.71459 7.62308 6.37692 7.28541 5.997 7C6.37692 6.71459 6.71459 6.37692 7 5.997C7.285 6.377 7.624 6.715 8.003 7C7.62308 7.28541 7.28541 7.62308 7 8.003Z" fill="#1A0E06"/>
<path d="M15 17C14.7348 17 14.4804 17.1054 14.2929 17.2929C14.1054 17.4804 14 17.7348 14 18C14 18.2652 14.1054 18.5196 14.2929 18.7071C14.4804 18.8946 14.7348 19 15 19C16.654 19 18 20.346 18 22C18 22.2652 18.1054 22.5196 18.2929 22.7071C18.4804 22.8946 18.7348 23 19 23C19.2652 23 19.5196 22.8946 19.7071 22.7071C19.8946 22.5196 20 22.2652 20 22C20 20.346 21.346 19 23 19C23.2652 19 23.5196 18.8946 23.7071 18.7071C23.8946 18.5196 24 18.2652 24 18C24 17.7348 23.8946 17.4804 23.7071 17.2929C23.5196 17.1054 23.2652 17 23 17C21.346 17 20 15.654 20 14C20 13.7348 19.8946 13.4804 19.7071 13.2929C19.5196 13.1054 19.2652 13 19 13C18.7348 13 18.4804 13.1054 18.2929 13.2929C18.1054 13.4804 18 13.7348 18 14C18 15.654 16.654 17 15 17ZM19 16.997C19.285 17.377 19.624 17.715 20.003 18C19.6231 18.2854 19.2854 18.6231 19 19.003C18.7146 18.6231 18.3769 18.2854 17.997 18C18.3769 17.7146 18.7146 17.3769 19 16.997Z" fill="#1A0E06"/>
<path d="M18 3H20V5H18V3Z" fill="#1A0E06"/>
<path d="M29 9H31V11H29V9Z" fill="#1A0E06"/>
<path d="M4 26H6V28H4V26Z" fill="#1A0E06"/>
<path d="M7 16H9V18H7V16Z" fill="#1A0E06"/>
<path d="M45 3H47V5H45V3Z" fill="#1A0E06"/>
<path d="M2.36674 41.2259C2.26183 41.3118 2.17548 41.4182 2.11292 41.5385C2.05035 41.6588 2.01288 41.7905 2.00278 41.9258C1.99268 42.061 2.01016 42.1969 2.05416 42.3251C2.09816 42.4534 2.16776 42.5714 2.25874 42.6719L9.75274 50.9329C13.5128 56.5349 19.3858 60.1999 25.8348 60.9869L31.8348 61.9869C31.9781 62.0109 32.125 62.0033 32.2651 61.9648C32.4052 61.9262 32.5353 61.8576 32.6462 61.7636C32.7571 61.6697 32.8462 61.5527 32.9072 61.4208C32.9683 61.2889 32.9999 61.1453 32.9998 60.9999V51.9999H40.9998C41.9651 51.9963 42.8959 51.6407 43.6178 50.9999H49.9998C50.265 50.9999 50.5193 50.8946 50.7069 50.707C50.8944 50.5195 50.9998 50.2651 50.9998 49.9999V37.9999C50.9998 37.7347 50.8944 37.4803 50.7069 37.2928C50.5193 37.1053 50.265 36.9999 49.9998 36.9999H39.9998C38.3458 36.9999 36.9998 38.3459 36.9998 39.9999V43.9999H33.9998V39.9999H31.9998V44.9999C31.9998 45.2651 32.1051 45.5195 32.2927 45.707C32.4802 45.8946 32.7346 45.9999 32.9998 45.9999H40.9998C42.1028 45.9999 42.9998 46.8969 42.9998 47.9999C42.9998 48.1269 42.9848 48.2509 42.9618 48.3719C42.9409 48.4713 42.9125 48.5689 42.8768 48.6639L42.8618 48.7119C42.7712 48.9393 42.6412 49.1488 42.4778 49.3309L42.4648 49.3509C42.279 49.5549 42.0528 49.7179 41.8006 49.8296C41.5484 49.9414 41.2756 49.9994 40.9998 49.9999H28.9998C27.8968 49.9999 26.9998 49.1029 26.9998 47.9999V36.3919C26.9998 34.6489 27.9278 33.0069 29.4208 32.1079L34.1428 29.2649C34.1768 29.2969 34.2138 29.3239 34.2478 29.3549C34.4348 29.5269 34.6258 29.6939 34.8258 29.8509C34.8718 29.8869 34.9188 29.9199 34.9658 29.9559C35.1738 30.1139 35.3858 30.2659 35.6058 30.4079C35.6458 30.4339 35.6868 30.4569 35.7268 30.4819C35.9558 30.6249 36.1888 30.7609 36.4288 30.8849L36.5378 30.9369C36.7828 31.0599 37.0308 31.1749 37.2868 31.2779C37.3258 31.2939 37.3668 31.3069 37.4068 31.3219C37.6588 31.4189 37.9128 31.5099 38.1738 31.5879C38.2328 31.6059 38.2938 31.6179 38.3538 31.6339C38.5948 31.6999 38.8368 31.7639 39.0848 31.8119C39.2018 31.8349 39.3198 31.8469 39.4378 31.8659C39.6328 31.8969 39.8258 31.9319 40.0248 31.9509C40.3478 31.9829 40.6728 31.9999 40.9998 31.9999C46.5138 31.9999 50.9998 27.5139 50.9998 21.9999C50.9998 21.7329 50.9838 21.4579 50.9578 21.1759C50.9403 20.9769 50.9166 20.7785 50.8868 20.5809L50.8778 20.5059C50.9448 20.0679 50.9828 19.6469 50.9938 19.2279L54.8298 6.86395C56.1938 5.87095 57.6468 5.72595 58.7588 6.48195C59.2613 6.82065 59.641 7.31257 59.8413 7.88447C60.0417 8.45638 60.052 9.0777 59.8708 9.65595L54.0448 28.4279C54.0148 28.5241 53.9997 28.6242 53.9998 28.7249V61.9999H55.9998V28.8759L61.7808 10.2489C62.0909 9.262 62.0739 8.20125 61.7322 7.22475C61.3906 6.24825 60.7426 5.40827 59.8848 4.82995C58.3888 3.80995 55.8868 3.44495 53.3398 5.48695C53.1918 5.61095 53.0698 5.79295 53.0128 5.97595L49.6098 16.9399C47.8688 13.9899 44.6668 11.9999 40.9998 11.9999C35.4858 11.9999 30.9998 16.4859 30.9998 21.9999C30.9998 23.1559 31.2068 24.2619 31.5698 25.2949C27.7743 25.2838 24.0164 26.046 20.5252 27.5351C17.034 29.0242 13.8828 31.2089 11.2638 33.9559L2.36674 41.2259ZM39.9998 38.9999H48.9998V40.9999H39.9998C39.7423 40.9884 39.4992 40.878 39.3211 40.6917C39.1429 40.5055 39.0435 40.2577 39.0435 39.9999C39.0435 39.7422 39.1429 39.4944 39.3211 39.3081C39.4992 39.1218 39.7423 39.0114 39.9998 38.9999ZM40.9998 43.9999H38.9998V42.8289C39.0858 42.8589 39.1778 42.8759 39.2668 42.8989C39.3238 42.9129 39.3778 42.9319 39.4358 42.9429C39.6188 42.9779 39.8068 42.9999 39.9998 42.9999H48.9998V48.9999H44.8708C44.8798 48.9639 44.8838 48.9269 44.8918 48.8909C44.9056 48.8282 44.9179 48.7652 44.9288 48.7019C44.9708 48.4709 44.9998 48.2369 44.9998 47.9999C44.9998 45.7939 43.2058 43.9999 40.9998 43.9999ZM40.9998 13.9999C44.9558 13.9999 48.2408 16.8889 48.8788 20.6659V20.6709C48.9554 21.1099 48.9959 21.5543 48.9998 21.9999C48.9998 26.4109 45.4108 29.9999 40.9998 29.9999C40.7178 29.9999 40.4378 29.9849 40.1598 29.9549L40.1328 29.9509C39.0337 29.8289 37.9719 29.4799 37.0148 28.9259L36.9828 28.9059C36.5201 28.636 36.0859 28.3201 35.6868 27.9629L35.6108 27.8939C35.4299 27.7283 35.2567 27.5545 35.0918 27.3729L35.0448 27.3209C34.8642 27.1178 34.6933 26.9062 34.5328 26.6869C34.5068 26.6519 34.4788 26.6179 34.4538 26.5819C34.3157 26.3856 34.1872 26.1827 34.0688 25.9739C33.3682 24.7667 32.9994 23.3957 32.9998 21.9999C32.9998 17.5889 36.5888 13.9999 40.9998 13.9999ZM12.6688 35.3789C15.2129 32.6961 18.3015 30.5884 21.7272 29.1974C25.1529 27.8064 28.8365 27.1642 32.5308 27.3139C32.5708 27.3779 32.6158 27.4399 32.6578 27.5029C32.6918 27.5549 32.7258 27.6059 32.7618 27.6569L32.8118 27.7309L28.3888 30.3939C27.13 31.1573 26.1434 32.2975 25.5688 33.6529C22.872 33.9942 20.399 35.3275 18.6318 37.3929L15.2408 41.3489L16.7598 42.6499L20.1508 38.6939C21.4189 37.2122 23.1363 36.1855 25.0418 35.7699C25.0218 35.9769 24.9998 36.1829 24.9998 36.3919V47.9999C24.9998 50.2059 26.7938 51.9999 28.9998 51.9999H30.9998V59.8189L26.1208 59.0069C20.1838 58.2809 14.8088 54.9109 11.3748 49.7599C11.3473 49.7188 11.3169 49.6797 11.2838 49.6429L4.44774 42.1079L12.5768 35.4639C12.6095 35.4379 12.6403 35.4095 12.6688 35.3789Z" fill="#1A0E06"/>
</svg>
