<svg width="64" height="64" viewBox="0 0 64 64" fill="none" xmlns="http://www.w3.org/2000/svg">
<path d="M24.54 29.643C24.8059 29.9413 25.089 30.2238 25.388 30.489C25.595 30.672 25.811 30.846 26.033 31.012C26.113 31.072 26.191 31.134 26.273 31.191C26.574 31.402 26.885 31.601 27.21 31.779L27.217 31.783C27.545 31.962 27.887 32.119 28.237 32.262C28.335 32.302 28.436 32.334 28.535 32.371C29.1637 32.6046 29.8148 32.7729 30.478 32.873C30.596 32.891 30.712 32.913 30.831 32.927C31.214 32.971 31.603 33 32 33C32.397 33 32.786 32.971 33.17 32.926C33.289 32.912 33.405 32.89 33.523 32.872C33.9166 32.8125 34.3063 32.7293 34.69 32.623C34.954 32.549 35.212 32.464 35.466 32.37C35.565 32.333 35.666 32.301 35.764 32.261C36.1156 32.1197 36.4588 31.9584 36.792 31.778C37.1143 31.5999 37.4265 31.4039 37.727 31.191C37.809 31.134 37.887 31.071 37.967 31.012C38.5106 30.6084 39.0109 30.1496 39.46 29.643C39.514 29.582 39.571 29.525 39.624 29.463C41.1597 27.6599 42.0021 25.3684 42 23V11H22V23C21.9979 25.3684 22.8403 27.6599 24.376 29.463C24.428 29.525 24.486 29.582 24.54 29.643Z" fill="#F8CF26"/>
<path d="M45.589 29.795C43.9515 28.9757 42.145 28.5507 40.314 28.554C40.1011 28.8699 39.8704 29.1734 39.623 29.463C39.571 29.525 39.513 29.582 39.459 29.643C39.1931 29.9413 38.91 30.2238 38.611 30.489C38.404 30.672 38.188 30.846 37.966 31.012C37.886 31.072 37.808 31.134 37.726 31.191C37.4227 31.4059 37.1075 31.6035 36.782 31.783C36.454 31.962 36.112 32.119 35.763 32.261C35.665 32.301 35.564 32.333 35.465 32.37C34.8363 32.6036 34.1852 32.7719 33.522 32.872C33.404 32.89 33.288 32.912 33.169 32.926C32.7811 32.9735 32.3908 32.9982 32 33H35.349C35.1193 33.6418 35.0013 34.3183 35 35C35 36.5913 35.6321 38.1174 36.7574 39.2426C37.8826 40.3679 39.4087 41 41 41V45H23V41C24.5913 41 26.1174 40.3679 27.2426 39.2426C28.3679 38.1174 29 36.5913 29 35C28.9987 34.3183 28.8807 33.6418 28.651 33H32C31.603 33 31.214 32.971 30.83 32.926C30.711 32.912 30.595 32.89 30.477 32.872C30.0834 32.8125 29.6937 32.7293 29.31 32.623C29.048 32.5492 28.7891 32.4648 28.534 32.37C28.435 32.333 28.334 32.301 28.236 32.261C27.8872 32.1209 27.5466 31.9609 27.216 31.782L27.209 31.778C26.8864 31.5989 26.5736 31.4026 26.272 31.19C26.19 31.133 26.112 31.07 26.032 31.011C25.4884 30.6074 24.9881 30.1486 24.539 29.642C24.485 29.581 24.428 29.524 24.375 29.462C24.1276 29.1724 23.8969 28.8689 23.684 28.553C21.853 28.5497 20.0465 28.9747 18.409 29.794L14 32L3 54L3.019 53.992C3.63444 53.7088 4.25804 53.4437 4.889 53.197C5.103 53.113 5.321 53.044 5.536 52.965C5.961 52.809 6.385 52.65 6.814 52.511C7.072 52.428 7.334 52.359 7.593 52.282C7.984 52.166 8.373 52.046 8.767 51.944C9.047 51.871 9.329 51.813 9.611 51.748C9.989 51.66 10.366 51.569 10.746 51.494C11.038 51.437 11.332 51.393 11.626 51.343C11.998 51.28 12.369 51.214 12.743 51.163C13.044 51.122 13.346 51.094 13.648 51.061C14.016 51.021 14.384 50.979 14.753 50.951C15.06 50.928 15.368 50.916 15.676 50.901C16.041 50.883 16.405 50.864 16.77 50.858C17.082 50.853 17.393 50.858 17.705 50.861C18.045 50.864 18.386 50.868 18.726 50.882C24.814 51.183 30.108 55.186 32 60.999V61L32.005 60.986C32.5735 59.241 33.4578 57.6153 34.614 56.19C37.117 53.108 40.803 51.095 44.9 50.888C50.4394 50.6076 55.9641 51.6755 61 54L50 32L45.589 29.795Z" fill="#F9F5EF"/>
<path d="M29 35C29 36.5913 28.3679 38.1174 27.2426 39.2426C26.1174 40.3679 24.5913 41 23 41V45H41V41C39.4087 41 37.8826 40.3679 36.7574 39.2426C35.6321 38.1174 35 36.5913 35 35C35 34.298 35.127 33.626 35.349 33H28.651C28.8807 33.6419 28.9987 34.3183 29 35Z" fill="#F8CF26"/>
<path d="M18.726 50.8799C18.3858 50.8679 18.0454 50.8609 17.705 50.8589C17.393 50.8559 17.082 50.8509 16.77 50.8559C16.405 50.8619 16.04 50.8809 15.676 50.8989C15.368 50.9139 15.061 50.9259 14.753 50.9489C14.384 50.9769 14.016 51.0189 13.648 51.0589C13.346 51.0919 13.044 51.1199 12.743 51.1609C12.37 51.2119 11.998 51.2779 11.626 51.3409C11.333 51.3909 11.039 51.4349 10.746 51.4919C10.366 51.5669 9.989 51.6579 9.611 51.7459C9.33 51.8109 9.047 51.8689 8.767 51.9419C8.373 52.0439 7.983 52.1639 7.593 52.2799C7.333 52.3569 7.072 52.4259 6.814 52.5089C6.385 52.6479 5.96 52.8059 5.536 52.9629C5.321 53.0419 5.103 53.1119 4.889 53.1949C4.26 53.4409 3.636 53.7059 3.019 53.9899C3.013 53.9949 3.006 53.9969 3 53.9999V60.9999C10.18 53.8199 21.82 53.8199 29 60.9999H32V60.9989C30.108 55.1859 24.814 51.1829 18.726 50.8799Z" fill="#06AAE9"/>
<path d="M44.9 50.8881C40.803 51.0951 37.117 53.1081 34.614 56.1901C33.4562 57.6144 32.5717 59.2403 32.005 60.9861L32 61.0001H35C42.18 53.8201 53.82 53.8201 61 61.0001V54.0001C55.9641 51.6756 50.4394 50.6078 44.9 50.8881Z" fill="#06AAE9"/>
<path d="M57 3C57 4.06087 56.5786 5.07828 55.8284 5.82843C55.0783 6.57857 54.0609 7 53 7C54.0609 7 55.0783 7.42143 55.8284 8.17157C56.5786 8.92172 57 9.93913 57 11C57 9.93913 57.4214 8.92172 58.1716 8.17157C58.9217 7.42143 59.9391 7 61 7C59.9391 7 58.9217 6.57857 58.1716 5.82843C57.4214 5.07828 57 4.06087 57 3Z" fill="#F8CF26"/>
<path d="M7 22C7 20.9391 7.42143 19.9217 8.17157 19.1716C8.92172 18.4214 9.93913 18 11 18C9.93913 18 8.92172 17.5786 8.17157 16.8284C7.42143 16.0783 7 15.0609 7 14C7 15.0609 6.57857 16.0783 5.82843 16.8284C5.07828 17.5786 4.06087 18 3 18C4.06087 18 5.07828 18.4214 5.82843 19.1716C6.57857 19.9217 7 20.9391 7 22Z" fill="#F8CF26"/>
<path d="M37 14H39V22H37V14Z" fill="#1A0E06"/>
<path d="M61.969 53.788C61.9566 53.7327 61.9395 53.6785 61.918 53.626C61.908 53.602 61.906 53.576 61.895 53.552L50.895 31.552C50.7981 31.3587 50.6413 31.2019 50.448 31.105L46.037 28.9C44.7523 28.2625 43.3698 27.845 41.947 27.665C42.49 26.512 42.841 25.255 42.953 23.927C46.362 23.46 49 20.536 49 17V11C49 10.7348 48.8946 10.4804 48.7071 10.2929C48.5196 10.1054 48.2652 10 48 10H16C15.7348 10 15.4804 10.1054 15.2929 10.2929C15.1054 10.4804 15 10.7348 15 11V17C15 20.536 17.638 23.46 21.047 23.927C21.1566 25.223 21.4973 26.489 22.053 27.665C20.6302 27.845 19.2477 28.2625 17.963 28.9L13.552 31.105C13.3587 31.2019 13.2019 31.3587 13.105 31.552L2.105 53.552C2.093 53.576 2.091 53.602 2.082 53.626C2.04403 53.7203 2.02043 53.8197 2.012 53.921C2.009 53.948 2 53.973 2 54V61C2.00099 61.1973 2.06022 61.39 2.17026 61.5538C2.2803 61.7176 2.43626 61.8452 2.61857 61.9207C2.80088 61.9962 3.00142 62.0162 3.19506 61.9782C3.38869 61.9402 3.56678 61.8458 3.707 61.707C6.991 58.423 11.356 56.615 16 56.615C20.644 56.615 25.009 58.423 28.293 61.707C28.3857 61.8 28.4959 61.8738 28.6173 61.924C28.7386 61.9743 28.8687 62.0001 29 62H35C35.265 62 35.52 61.895 35.707 61.707C38.991 58.423 43.356 56.615 48 56.615C52.644 56.615 57.009 58.423 60.293 61.707C60.4328 61.8468 60.611 61.942 60.805 61.9806C60.9989 62.0191 61.2 61.9993 61.3827 61.9237C61.5654 61.848 61.7215 61.7199 61.8314 61.5555C61.9413 61.391 62 61.1978 62 61V54C62 53.973 61.991 53.948 61.989 53.921C61.9853 53.8763 61.9786 53.8318 61.969 53.788ZM40.824 29.566C42.322 29.636 43.805 30.021 45.142 30.69L49.255 32.746L58.907 52.05C58.566 51.924 58.22 51.813 57.875 51.698C57.698 51.639 57.523 51.574 57.346 51.517C56.7143 51.3154 56.077 51.1317 55.435 50.966C55.359 50.946 55.281 50.932 55.205 50.912C54.6369 50.7696 54.0654 50.6412 53.491 50.527C53.301 50.489 53.11 50.459 52.919 50.424C52.4503 50.3382 51.9798 50.2618 51.508 50.195C51.296 50.165 51.084 50.139 50.872 50.113C50.4093 50.057 49.9455 50.01 49.481 49.972C49.274 49.955 49.067 49.937 48.86 49.924C48.363 49.892 47.866 49.874 47.368 49.863C47.197 49.859 47.026 49.851 46.855 49.85C46.1861 49.8438 45.5171 49.8572 44.849 49.89C44.508 49.907 44.17 49.936 43.834 49.977C43.712 49.992 43.591 50.016 43.469 50.034C43.257 50.065 43.045 50.093 42.835 50.133C42.559 50.186 42.287 50.251 42.016 50.319C41.962 50.333 41.908 50.342 41.854 50.356C38.265 51.302 35.106 53.58 32.999 56.693V46H40.999C41.2642 46 41.5186 45.8946 41.7061 45.7071C41.8936 45.5196 41.999 45.2652 41.999 45V41C41.999 40.7348 41.8936 40.4804 41.7061 40.2929C41.5186 40.1054 41.2642 40 40.999 40C38.242 40 35.999 37.757 35.999 35C35.999 34.44 36.097 33.88 36.291 33.333C36.3176 33.2584 36.3351 33.1808 36.343 33.102C36.445 33.058 36.543 33.004 36.643 32.957C36.796 32.886 36.949 32.816 37.098 32.737C37.298 32.632 37.491 32.516 37.684 32.398C37.829 32.31 37.978 32.228 38.119 32.133C38.421 31.93 38.713 31.714 38.993 31.483C39.131 31.369 39.259 31.242 39.391 31.121C39.548 30.978 39.706 30.836 39.855 30.684C39.984 30.552 40.104 30.413 40.227 30.275C40.371 30.112 40.512 29.947 40.646 29.775C40.704 29.704 40.769 29.64 40.824 29.566ZM29.926 34H34.073C34.0243 34.3311 33.9999 34.6653 34 35C34 38.521 36.612 41.442 40 41.929V44H24V41.929C27.388 41.442 30 38.521 30 35C30 34.666 29.976 34.332 29.926 34ZM47 17C46.9985 18.1521 46.5998 19.2684 45.8712 20.1608C45.1425 21.0532 44.1285 21.6671 43 21.899V12H47V17ZM41 23C41.002 24.7911 40.4666 26.5415 39.463 28.025C39.2821 28.2911 39.0868 28.5471 38.878 28.792C38.79 28.896 38.696 28.994 38.603 29.094C38.3692 29.3472 38.1218 29.5876 37.862 29.814C37.7155 29.9387 37.5651 30.0588 37.411 30.174C37.301 30.257 37.194 30.343 37.081 30.421C36.821 30.599 36.554 30.767 36.277 30.916C36.2 30.958 36.118 30.991 36.039 31.031C35.8178 31.1442 35.592 31.2479 35.362 31.342C35.253 31.386 35.142 31.423 35.031 31.463C34.7082 31.5795 34.379 31.6773 34.045 31.756C33.8116 31.8097 33.5761 31.8537 33.339 31.888C33.237 31.903 33.136 31.923 33.032 31.935C32.692 31.975 32.348 32 32 32C31.652 32 31.308 31.975 30.968 31.936C30.865 31.924 30.764 31.904 30.661 31.889C30.424 31.8542 30.1885 31.8101 29.955 31.757C29.6213 31.6773 29.2921 31.5795 28.969 31.464C28.858 31.424 28.747 31.387 28.638 31.343C28.408 31.2489 28.1822 31.1452 27.961 31.032C27.883 30.992 27.8 30.959 27.723 30.917C27.4466 30.7661 27.1782 30.6008 26.919 30.422C26.805 30.344 26.698 30.258 26.589 30.175C26.4349 30.0598 26.2845 29.9397 26.138 29.815C25.8767 29.5902 25.6293 29.3497 25.397 29.095C25.305 28.995 25.21 28.897 25.122 28.793C24.9137 28.5478 24.7184 28.2917 24.537 28.026C23.5335 26.5421 22.9981 24.7914 23 23V12H41V23ZM17 17V12H21V21.899C19.8715 21.6671 18.8574 21.0532 18.1288 20.1608C17.4002 19.2684 17.0015 18.1521 17 17ZM14.745 32.746L18.858 30.69C20.2036 30.0193 21.6742 29.6365 23.176 29.566C23.231 29.64 23.296 29.704 23.353 29.777C23.488 29.948 23.628 30.114 23.772 30.277C23.894 30.415 24.015 30.554 24.144 30.686C24.293 30.838 24.451 30.98 24.608 31.123C24.741 31.244 24.868 31.371 25.006 31.485C25.286 31.716 25.578 31.932 25.88 32.135C26.021 32.23 26.17 32.312 26.315 32.4C26.508 32.517 26.7 32.633 26.901 32.739C27.05 32.817 27.203 32.887 27.356 32.959C27.457 33.006 27.554 33.06 27.657 33.104C27.665 33.1828 27.6825 33.2604 27.709 33.335C27.902 33.88 28 34.44 28 35C28 37.757 25.757 40 23 40C22.7348 40 22.4804 40.1054 22.2929 40.2929C22.1054 40.4804 22 40.7348 22 41V45C22 45.2652 22.1054 45.5196 22.2929 45.7071C22.4804 45.8946 22.7348 46 23 46H31V56.7C28.319 52.736 23.945 50.132 19.151 49.89C19.035 49.884 18.919 49.888 18.804 49.883C18.701 49.878 18.6 49.866 18.497 49.863C18.126 49.851 17.757 49.845 17.386 49.845C17.311 49.845 17.236 49.85 17.161 49.85C17.007 49.851 16.853 49.857 16.699 49.86C16.202 49.87 15.705 49.89 15.208 49.921C15.023 49.933 14.838 49.944 14.653 49.958C14.084 50.0017 13.5162 50.0593 12.95 50.131C12.88 50.14 12.81 50.145 12.74 50.154C12.113 50.237 11.489 50.341 10.868 50.458C10.687 50.492 10.507 50.531 10.327 50.567C9.862 50.662 9.4 50.765 8.939 50.879C8.756 50.924 8.573 50.968 8.39 51.015C7.777 51.176 7.167 51.348 6.563 51.542L6.479 51.571C6.014 51.721 5.551 51.879 5.093 52.049L14.745 32.746ZM4 58.774V54.66C4.201 54.572 4.402 54.486 4.604 54.402C4.899 54.28 5.194 54.157 5.492 54.044C5.79922 53.9284 6.10826 53.8178 6.419 53.712C6.715 53.609 7.011 53.506 7.309 53.412C7.626 53.312 7.946 53.221 8.266 53.13C8.565 53.045 8.864 52.96 9.165 52.884C9.486 52.803 9.808 52.731 10.131 52.659C10.438 52.591 10.745 52.522 11.053 52.462C11.371 52.401 11.691 52.349 12.01 52.296C12.329 52.244 12.648 52.192 12.968 52.149C13.278 52.107 13.589 52.075 13.9 52.042C14.232 52.007 14.565 51.972 14.898 51.947C15.202 51.924 15.506 51.91 15.81 51.896C16.15 51.88 16.489 51.864 16.829 51.858C17.134 51.853 17.439 51.857 17.744 51.86C18.057 51.863 18.37 51.867 18.682 51.879C21.0867 52.0014 23.4173 52.7522 25.4411 54.0567C27.465 55.3611 29.1114 57.1735 30.216 59.313L30.28 59.447C30.37 59.628 30.453 59.814 30.535 60H29.406C22.383 53.268 11.495 52.858 4 58.774ZM34.592 60H33.459C33.513 59.876 33.569 59.753 33.627 59.632C33.686 59.509 33.742 59.385 33.804 59.264C33.897 59.082 33.997 58.905 34.098 58.728C34.16 58.619 34.22 58.507 34.285 58.4C34.403 58.205 34.529 58.016 34.656 57.828C34.712 57.745 34.764 57.659 34.822 57.578C35.011 57.311 35.208 57.051 35.414 56.799L35.445 56.764C35.641 56.526 35.845 56.295 36.056 56.071C36.129 55.993 36.207 55.921 36.282 55.846C36.434 55.692 36.587 55.538 36.746 55.392C36.838 55.307 36.934 55.228 37.028 55.146C37.176 55.017 37.325 54.888 37.479 54.765C37.583 54.682 37.69 54.604 37.796 54.524C37.947 54.411 38.098 54.299 38.253 54.192C38.365 54.115 38.48 54.041 38.595 53.967C39.1337 53.6162 39.6983 53.3069 40.284 53.042C40.452 52.965 40.623 52.893 40.795 52.823C40.921 52.772 41.046 52.721 41.174 52.674C41.35 52.609 41.529 52.55 41.709 52.492C41.835 52.451 41.961 52.409 42.088 52.372C42.277 52.318 42.469 52.272 42.661 52.226C42.782 52.197 42.902 52.165 43.024 52.14C43.238 52.096 43.455 52.062 43.672 52.028C43.775 52.012 43.877 51.991 43.98 51.978C44.302 51.937 44.626 51.906 44.953 51.889C45.6115 51.8565 46.2708 51.8435 46.93 51.85C47.105 51.852 47.28 51.865 47.456 51.87C47.938 51.882 48.421 51.896 48.902 51.929C49.13 51.945 49.357 51.974 49.584 51.994C50.01 52.032 50.436 52.069 50.861 52.123C51.119 52.156 51.374 52.202 51.631 52.241C52.023 52.301 52.415 52.358 52.804 52.431C53.078 52.483 53.349 52.547 53.621 52.605C53.99 52.684 54.359 52.761 54.725 52.853C55.007 52.923 55.285 53.006 55.565 53.083C55.917 53.181 56.27 53.277 56.619 53.387C56.904 53.476 57.185 53.576 57.468 53.673C57.806 53.789 58.144 53.904 58.478 54.031C58.763 54.139 59.044 54.257 59.326 54.373C59.553 54.467 59.779 54.562 60.004 54.661V58.775C52.505 52.858 41.617 53.268 34.592 60Z" fill="#1A0E06"/>
<path d="M61 6C59.346 6 58 4.654 58 3C58 2.73478 57.8946 2.48043 57.7071 2.29289C57.5196 2.10536 57.2652 2 57 2C56.7348 2 56.4804 2.10536 56.2929 2.29289C56.1054 2.48043 56 2.73478 56 3C56 4.654 54.654 6 53 6C52.7348 6 52.4804 6.10536 52.2929 6.29289C52.1054 6.48043 52 6.73478 52 7C52 7.26522 52.1054 7.51957 52.2929 7.70711C52.4804 7.89464 52.7348 8 53 8C54.654 8 56 9.346 56 11C56 11.2652 56.1054 11.5196 56.2929 11.7071C56.4804 11.8946 56.7348 12 57 12C57.2652 12 57.5196 11.8946 57.7071 11.7071C57.8946 11.5196 58 11.2652 58 11C58 9.346 59.346 8 61 8C61.2652 8 61.5196 7.89464 61.7071 7.70711C61.8946 7.51957 62 7.26522 62 7C62 6.73478 61.8946 6.48043 61.7071 6.29289C61.5196 6.10536 61.2652 6 61 6ZM57 8.003C56.7143 7.62332 56.3767 7.28568 55.997 7C56.3767 6.71432 56.7143 6.37668 57 5.997C57.2857 6.37668 57.6233 6.71432 58.003 7C57.6233 7.28568 57.2857 7.62332 57 8.003Z" fill="#1A0E06"/>
<path d="M3 19C4.654 19 6 20.346 6 22C6 22.2652 6.10536 22.5196 6.29289 22.7071C6.48043 22.8946 6.73478 23 7 23C7.26522 23 7.51957 22.8946 7.70711 22.7071C7.89464 22.5196 8 22.2652 8 22C8 20.346 9.346 19 11 19C11.2652 19 11.5196 18.8946 11.7071 18.7071C11.8946 18.5196 12 18.2652 12 18C12 17.7348 11.8946 17.4804 11.7071 17.2929C11.5196 17.1054 11.2652 17 11 17C9.346 17 8 15.654 8 14C8 13.7348 7.89464 13.4804 7.70711 13.2929C7.51957 13.1054 7.26522 13 7 13C6.73478 13 6.48043 13.1054 6.29289 13.2929C6.10536 13.4804 6 13.7348 6 14C6 15.654 4.654 17 3 17C2.73478 17 2.48043 17.1054 2.29289 17.2929C2.10536 17.4804 2 17.7348 2 18C2 18.2652 2.10536 18.5196 2.29289 18.7071C2.48043 18.8946 2.73478 19 3 19ZM7 16.997C7.28568 17.3767 7.62332 17.7143 8.003 18C7.62332 18.2857 7.28568 18.6233 7 19.003C6.71432 18.6233 6.37668 18.2857 5.997 18C6.37668 17.7143 6.71432 17.3767 7 16.997Z" fill="#1A0E06"/>
<path d="M23 8H25C25 4.691 22.309 2 19 2H18V4H19C21.206 4 23 5.794 23 8Z" fill="#1A0E06"/>
<path d="M48 4H49V2H48C44.691 2 42 4.691 42 8H44C44 5.794 45.794 4 48 4Z" fill="#1A0E06"/>
<path d="M34 2V4H32V6H34V8H36V6H38V4H36V2H34Z" fill="#1A0E06"/>
<path d="M55 21V23H53V25H55V27H57V25H59V23H57V21H55Z" fill="#1A0E06"/>
<path d="M13 2H15V4H13V2Z" fill="#1A0E06"/>
<path d="M58 16H60V18H58V16Z" fill="#1A0E06"/>
<path d="M12 24H14V26H12V24Z" fill="#1A0E06"/>
<path d="M2 8H4V10H2V8Z" fill="#1A0E06"/>
</svg>
