<svg width="64" height="64" viewBox="0 0 64 64" fill="none" xmlns="http://www.w3.org/2000/svg">
<g clip-path="url(#clip0)">
<path d="M8.85903 39.4817C6.67554 35.0893 5.45293 29.8619 5.53193 25.2131C5.76142 11.7064 16.8103 1.03541 30.3171 1.2534C43.6005 1.4679 54.3025 12.3028 54.3025 25.6373L58.4145 39.0255C58.6599 39.8243 58.0625 40.6327 57.2269 40.6327H51.6097V47.5348C51.6097 51.5195 48.3795 54.7497 44.3947 54.7497H36.1381L33.8465 62.7497H8.59665L10.6045 54.4229C11.8173 49.3934 11.162 44.1146 8.85903 39.4817Z" fill="#FFE6C0"/>
<path d="M29.7059 40.6177C37.9902 40.6177 44.7058 33.902 44.7058 25.6178C44.7058 17.3336 37.9902 10.6179 29.7059 10.6179C21.4217 10.6179 14.7061 17.3336 14.7061 25.6178C14.7061 33.902 21.4217 40.6177 29.7059 40.6177Z" fill="white"/>
<path d="M29.7058 34.7122C34.7285 34.7122 38.8002 30.6405 38.8002 25.6177C38.8002 20.595 34.7285 16.5233 29.7058 16.5233C24.683 16.5233 20.6113 20.595 20.6113 25.6177C20.6113 30.6405 24.683 34.7122 29.7058 34.7122Z" fill="#91DEF5"/>
<path d="M59.6088 38.6587L55.5513 25.4476C55.503 18.7437 52.8899 12.4294 48.1811 7.64828C43.4332 2.82769 37.0959 0.112835 30.3367 0.00371101C25.5312 -0.0760384 20.8305 1.1747 16.7441 3.61443C16.1514 3.9683 15.9578 4.73567 16.3118 5.32842C16.6658 5.92116 17.4331 6.11479 18.0258 5.76079C21.7126 3.55956 25.9576 2.43394 30.2963 2.50319C42.8438 2.70594 53.052 13.0837 53.052 25.6374C53.052 25.7618 53.0705 25.8855 53.1071 26.0044L57.2159 39.3828H51.6092C50.9189 39.3828 50.3592 39.9425 50.3592 40.6328V47.5348C50.3592 50.8239 47.6834 53.4999 44.3943 53.4999H34.8475C31.8755 53.4999 29.0815 52.3426 26.9801 50.2411C26.4919 49.7531 25.7004 49.7531 25.2122 50.2411C24.7241 50.7292 24.7241 51.5207 25.2122 52.0089C27.6993 54.496 30.9785 55.903 34.4807 55.9949L32.6443 62.4057C32.4541 63.0695 32.838 63.7616 33.5016 63.9516C33.6166 63.9846 33.7325 64.0003 33.8465 64.0003C34.3901 64.0003 34.8904 63.6428 35.0475 63.0942L37.0797 56H44.3942C49.0618 56 52.8591 52.2027 52.8591 47.535V41.8829H57.2263C58.0253 41.8829 58.7559 41.5144 59.2308 40.8718C59.7057 40.2289 59.8434 39.4224 59.6088 38.6587Z" fill="black"/>
<path d="M6.78161 25.2345C6.85499 20.9162 8.11185 16.7321 10.4161 13.1348C10.7885 12.5535 10.6191 11.7804 10.0378 11.408C9.45659 11.0358 8.68347 11.2049 8.3111 11.7863C5.75649 15.7742 4.36326 20.4098 4.28213 25.192C4.19963 30.0409 5.45987 35.4521 7.73973 40.0383C9.93146 44.4475 10.5173 49.4521 9.38934 54.1301L7.38148 62.4569C7.21961 63.1279 7.63248 63.8032 8.3036 63.965C8.4021 63.9886 8.5006 64 8.59772 64C9.16184 64 9.67371 63.6154 9.81184 63.0427L11.8197 54.7159C13.0852 49.4678 12.4313 43.8599 9.97846 38.9254C7.87098 34.6862 6.70574 29.696 6.78161 25.2345Z" fill="black"/>
<path d="M13.8252 7.24638C13.349 6.74638 12.5578 6.72713 12.0579 7.20326C11.5579 7.67938 11.5387 8.47063 12.0148 8.9705L12.016 8.97176C12.2615 9.22963 12.5907 9.35938 12.9204 9.35938C13.2302 9.35938 13.5404 9.24475 13.7825 9.01425C14.2827 8.53813 14.3014 7.74626 13.8252 7.24638Z" fill="black"/>
<path d="M45.9557 25.6178C45.9557 23.9593 45.7116 22.3474 45.2304 20.8C45.3751 20.706 45.5031 20.5812 45.6021 20.4263C45.9738 19.8446 45.8036 19.0717 45.2218 18.6998L43.7482 17.7582C43.4231 17.5505 43.0202 17.5046 42.6566 17.6337C42.293 17.763 42.0095 18.0529 41.8883 18.4192L41.3255 20.122C41.1088 20.7775 41.4645 21.4844 42.1198 21.7012C42.2501 21.7442 42.3823 21.7647 42.5125 21.7647C42.643 21.7647 42.7712 21.7441 42.8929 21.7049C43.2667 22.9637 43.4558 24.2724 43.4558 25.6178C43.4558 33.1995 37.2876 39.3677 29.7059 39.3677C22.1242 39.3677 15.956 33.1995 15.956 25.6178C15.956 18.0361 22.1242 11.8679 29.7059 11.8679C31.6675 11.8679 33.5614 12.2719 35.3349 13.0689C35.9646 13.3518 36.7045 13.0708 36.9874 12.441C37.2702 11.8113 36.9892 11.0714 36.3595 10.7885C34.2618 9.84592 32.0232 9.36792 29.7059 9.36792C20.7457 9.36792 13.4561 16.6576 13.4561 25.6178C13.4561 34.578 20.7457 41.8677 29.7059 41.8677C38.6661 41.8677 45.9557 34.578 45.9557 25.6178Z" fill="black"/>
<path d="M19.3613 25.6176C19.3613 31.3216 24.0019 35.962 29.7057 35.962C35.4096 35.962 40.0502 31.3215 40.0502 25.6176C40.0502 19.9138 35.4096 15.2732 29.7057 15.2732C24.0019 15.2732 19.3613 19.9137 19.3613 25.6176ZM37.5503 25.6176C37.5503 29.9431 34.0313 33.4621 29.7059 33.4621C25.3804 33.4621 21.8614 29.9431 21.8614 25.6176C21.8614 21.2922 25.3804 17.7732 29.7059 17.7732C34.0313 17.7732 37.5503 21.2922 37.5503 25.6176Z" fill="black"/>
<path d="M28.4561 21.1508V25.6176C28.4561 26.308 29.0157 26.8676 29.7061 26.8676H31.9078C32.5982 26.8676 33.1578 26.308 33.1578 25.6176C33.1578 24.9273 32.5982 24.3676 31.9078 24.3676H30.956V21.1508C30.956 20.4604 30.3964 19.9008 29.7061 19.9008C29.0157 19.9008 28.4561 20.4604 28.4561 21.1508Z" fill="black"/>
</g>
<defs>
<clipPath id="clip0">
<rect width="64" height="64" fill="white"/>
</clipPath>
</defs>
</svg>
