<svg width="64" height="64" viewBox="0 0 64 64" fill="none" xmlns="http://www.w3.org/2000/svg">
<path d="M31.9999 33.2343V25.3593V15.02C31.9999 11.9714 29.4538 9.5 26.3129 9.5C22.9695 9.5 20.3611 12.2792 20.6482 15.5022C16.1155 15.607 13.0257 19.9377 14.4011 24.0573C11.5315 25.1523 9.5 27.8659 9.5 31.0399C9.5 33.9953 11.261 36.5506 13.8199 37.773C9.34163 42.5581 14.0914 50.2683 20.6513 48.4612C20.3406 51.6958 22.9541 54.4998 26.3129 54.4998C29.4538 54.4998 31.9999 52.0285 31.9999 48.9798V40.039V33.2343Z" fill="#FF8D8D"/>
<path d="M37.6867 9.5C34.5459 9.5 32 11.9714 32 15.02V33.2343V40.039V48.9798C32 52.0285 34.5459 54.4998 37.6867 54.4998C41.0456 54.4998 43.6591 51.6958 43.3483 48.4612C49.9083 50.2683 54.658 42.5581 50.1798 37.773C51.2917 37.2418 52.2528 36.4588 52.9845 35.5008C51.6027 36.5881 49.8596 37.2369 47.9651 37.2369C43.4785 37.2369 39.8401 33.5985 39.8401 29.1119C39.8401 24.6253 43.4785 20.987 47.9651 20.987C48.6221 20.987 49.2604 21.0656 49.8726 21.2128C49.4632 18.1565 46.8333 15.5827 43.3516 15.5021C43.6386 12.2792 41.0302 9.5 37.6867 9.5Z" fill="#FD4A4A"/>
<path d="M47.9648 37.2369C52.4399 37.2369 56.0898 33.587 56.0898 29.1119C56.0898 24.6368 52.4399 20.9869 47.9648 20.9869C43.4897 20.9869 39.8398 24.6368 39.8398 29.1119C39.8398 33.587 43.4897 37.2369 47.9648 37.2369Z" fill="#00D8CE"/>
<path d="M19.1942 34.5044C19.1723 34.5088 19.1513 34.5133 19.1294 34.5185C18.4582 34.6797 18.0446 35.3544 18.2057 36.0258C18.3433 36.599 18.8553 36.9844 19.4202 36.9843C19.5107 36.9843 19.6026 36.9744 19.6944 36.9538C20.3657 36.8139 20.7997 36.1586 20.6649 35.485C20.5297 34.808 19.8703 34.3689 19.1942 34.5044Z" fill="black"/>
<path d="M32 4.99998C32.6903 4.99998 33.25 4.44023 33.25 3.74999V1.25C33.25 0.559748 32.6903 0 32 0C31.3098 0 30.75 0.559748 30.75 1.25V3.74999C30.75 4.44023 31.3096 4.99998 32 4.99998Z" fill="black"/>
<path d="M16.7927 8.15954C17.0243 8.56054 17.4443 8.78478 17.8765 8.78478C18.0885 8.78478 18.3035 8.73066 18.5002 8.61703C19.0981 8.27179 19.303 7.50741 18.9577 6.90954L17.7077 4.74455C17.3625 4.14692 16.598 3.9418 16.0002 4.28705C15.4023 4.6323 15.1975 5.39667 15.5427 5.99454L16.7927 8.15954Z" fill="black"/>
<path d="M4.74436 17.7074L6.9096 18.9574C7.10648 19.0711 7.32135 19.1252 7.53335 19.1252C7.96535 19.1252 8.3856 18.9009 8.6171 18.4999C8.96234 17.9021 8.75747 17.1376 8.1596 16.7924L5.99435 15.5424C5.39623 15.1972 4.63198 15.4022 4.28686 15.9999C3.94161 16.5978 4.14648 17.3623 4.74436 17.7074Z" fill="black"/>
<path d="M4.99998 31.9999C4.99998 31.3096 4.44023 30.7499 3.74999 30.7499H1.25C0.559748 30.7499 0 31.3096 0 31.9999C0 32.6901 0.559748 33.2499 1.25 33.2499H3.74999C4.44023 33.2499 4.99998 32.6901 4.99998 31.9999Z" fill="black"/>
<path d="M6.9096 45.0426L4.74436 46.2926C4.14648 46.6377 3.94161 47.4022 4.28686 48.0001C4.51836 48.4011 4.93848 48.6254 5.37061 48.6254C5.5826 48.6254 5.79748 48.5712 5.99435 48.4576L8.1596 47.2076C8.75747 46.8625 8.96234 46.098 8.6171 45.5001C8.27222 44.9025 7.50772 44.6975 6.9096 45.0426Z" fill="black"/>
<path d="M18.5002 55.3826C17.9022 55.0375 17.1377 55.2423 16.7927 55.8401L15.5427 58.0051C15.1975 58.603 15.4023 59.3674 16.0002 59.7126C16.1971 59.8262 16.412 59.8804 16.624 59.8804C17.056 59.8804 17.4762 59.6561 17.7077 59.2551L18.9577 57.0901C19.303 56.4921 19.0981 55.7278 18.5002 55.3826Z" fill="black"/>
<path d="M32 59.0001C31.3098 59.0001 30.75 59.5599 30.75 60.2501V62.7501C30.75 63.4404 31.3096 64.0001 32 64.0001C32.6904 64.0001 33.25 63.4405 33.25 62.7501V60.2501C33.25 59.5597 32.6903 59.0001 32 59.0001Z" fill="black"/>
<path d="M47.2077 55.8401C46.8625 55.2424 46.0981 55.0375 45.5002 55.3826C44.9023 55.7278 44.6975 56.4922 45.0427 57.0901L46.2927 59.2551C46.5243 59.6561 46.9443 59.8803 47.3765 59.8803C47.5885 59.8803 47.8035 59.8262 48.0002 59.7126C48.5981 59.3673 48.803 58.603 48.4577 58.0051L47.2077 55.8401Z" fill="black"/>
<path d="M59.2551 46.2925L57.0901 45.0425C56.4921 44.6974 55.7277 44.9023 55.3826 45.5C55.0373 46.0979 55.2422 46.8623 55.8401 47.2075L58.0051 48.4575C58.2019 48.5711 58.4168 48.6252 58.6288 48.6252C59.0608 48.6252 59.481 48.401 59.7125 48C60.0578 47.4021 59.8529 46.6378 59.2551 46.2925Z" fill="black"/>
<path d="M62.75 30.7499H60.25C59.5597 30.7499 59 31.3096 59 31.9999C59 32.6901 59.5597 33.2499 60.25 33.2499H62.75C63.4402 33.2499 64 32.6901 64 31.9999C64 31.3096 63.4402 30.7499 62.75 30.7499Z" fill="black"/>
<path d="M56.4663 19.1251C56.6783 19.1251 56.8933 19.071 57.0901 18.9574L59.255 17.7074C59.8529 17.3621 60.0578 16.5978 59.7125 15.9999C59.3674 15.4021 58.6029 15.1973 58.0051 15.5424L55.8401 16.7924C55.2422 17.1376 55.0373 17.902 55.3826 18.4999C55.6142 18.9009 56.0342 19.1251 56.4663 19.1251Z" fill="black"/>
<path d="M45.5002 8.61721C45.6971 8.73084 45.912 8.78496 46.124 8.78496C46.556 8.78496 46.9762 8.56071 47.2077 8.15971L48.4577 5.99472C48.803 5.39685 48.5981 4.63235 48.0002 4.28723C47.4022 3.94198 46.6377 4.14685 46.2927 4.74472L45.0427 6.90972C44.6975 7.50759 44.9023 8.27196 45.5002 8.61721Z" fill="black"/>
<path d="M57.3398 29.1119C57.3398 24.9881 54.6622 21.4802 50.9553 20.229C50.2085 17.2027 47.6888 14.9105 44.5932 14.3714C44.4567 12.944 43.8607 11.6042 42.8587 10.5091C41.5451 9.07337 39.66 8.25 37.6865 8.25C35.3351 8.25 33.2548 9.39862 31.9997 11.1502C30.7445 9.39862 28.664 8.25 26.3128 8.25C24.3393 8.25 22.4542 9.07337 21.1407 10.509C20.1395 11.6034 19.5436 12.9422 19.4065 14.3685C17.3095 14.7252 15.466 15.8761 14.2311 17.6326C13.0354 19.3336 12.5844 21.3669 12.9351 23.3506C10.0564 24.8683 8.25 27.7808 8.25 31.0399C8.25 33.9004 9.64212 36.5053 11.9644 38.1331C10.6282 40.2401 10.427 42.7764 11.4624 45.1635C12.7315 48.0896 15.578 49.9803 18.7138 49.9803C18.9578 49.9803 19.2035 49.9691 19.4497 49.9467C19.6438 51.2458 20.2213 52.4787 21.1246 53.4729C22.4391 54.9199 24.3301 55.7498 26.3128 55.7498C28.6642 55.7498 30.7445 54.6012 31.9997 52.8496C33.2548 54.6012 35.3353 55.7498 37.6865 55.7498C39.6693 55.7498 41.5602 54.9199 42.8749 53.4731C43.7784 52.4787 44.356 51.2457 44.5497 49.9465C47.5828 50.2193 50.4146 48.8163 52.0386 46.1294C53.6907 43.3962 53.5471 40.1829 51.733 37.6936C55.0308 36.2398 57.3398 32.9413 57.3398 29.1119ZM26.3128 53.2498C25.0332 53.2498 23.8166 52.7185 22.9748 51.792C22.3469 51.1008 21.9767 50.2591 21.8946 49.3656C24.1486 48.4706 24.7307 46.943 25.1678 45.7927C25.5348 44.8266 25.7191 44.3417 26.7652 44.0612C27.4321 43.8825 27.8278 43.1971 27.649 42.5304C27.4703 41.8635 26.7848 41.4677 26.1182 41.6465C23.8363 42.258 23.2552 43.7879 22.8307 44.9049C22.4031 46.0301 22.1207 46.7734 20.3277 47.2538C20.326 47.2543 20.3246 47.255 20.3228 47.2555C20.3216 47.2559 20.3203 47.2558 20.3192 47.2562C19.7792 47.405 19.2388 47.4805 18.7137 47.4805C16.5746 47.4805 14.6284 46.1806 13.7559 44.1687C12.921 42.2441 13.2861 40.1726 14.7325 38.6273C15.0047 38.3364 15.122 37.933 15.0481 37.5415C14.9742 37.1499 14.718 36.817 14.3585 36.6453C12.1326 35.5819 10.7499 33.4342 10.7499 31.04C10.7499 28.4573 12.3579 26.1748 14.8465 25.2252C15.4723 24.9864 15.7987 24.2968 15.5866 23.6614C15.0673 22.1061 15.3186 20.4327 16.2763 19.0703C17.2808 17.6412 18.8802 16.7971 20.6656 16.7523C22.7926 16.757 23.2619 17.6057 23.9103 18.7792C24.5011 19.8483 25.3099 21.3124 27.4852 21.3124C28.1754 21.3124 28.7352 20.7527 28.7352 20.0625C28.7352 19.3722 28.1754 18.8125 27.4852 18.8125C26.8411 18.8125 26.6724 18.6088 26.0986 17.5702C25.4632 16.4201 24.5441 14.7588 21.9312 14.3475C22.0606 13.5559 22.4194 12.8149 22.9853 12.1965C23.8262 11.2772 25.0391 10.75 26.3128 10.75C28.7592 10.75 30.7495 12.6655 30.7495 15.02V31.9273C27.8147 31.6418 27.0813 30.2999 26.1826 28.6503C25.3029 27.0358 24.2082 25.0266 20.9182 24.6788C20.2297 24.6047 19.6162 25.1039 19.5437 25.7904C19.4711 26.4769 19.9687 27.0924 20.6553 27.1649C22.6407 27.3749 23.1764 28.3582 23.9873 29.8464C24.2808 30.3852 24.5939 30.958 24.9923 31.5109C24.3336 32.1802 23.3401 32.8734 22.2128 33.4322C21.5943 33.7388 21.3414 34.4888 21.6481 35.1073C21.8663 35.5475 22.3089 35.8024 22.7691 35.8024C22.9554 35.8024 23.1449 35.7605 23.3233 35.6721C24.7239 34.9778 25.9279 34.1284 26.7926 33.2428C27.7383 33.8464 28.9988 34.2909 30.7498 34.4336V48.9798C30.7495 51.3343 28.7592 53.2498 26.3128 53.2498ZM49.267 38.6273C51.2315 40.7262 50.8816 43.211 49.8992 44.8364C48.9113 46.4707 46.6898 48.0846 43.6802 47.2562C43.6789 47.2558 43.6777 47.2557 43.6764 47.2553C43.6747 47.255 43.6734 47.2542 43.6717 47.2538C41.8786 46.7734 41.5964 46.0301 41.1687 44.9049C40.7444 43.7877 40.1631 42.2579 37.8813 41.6465C37.2149 41.4679 36.5291 41.8636 36.3504 42.5304C36.1716 43.1971 36.5674 43.8825 37.2343 44.0612C38.2804 44.3416 38.4646 44.8265 38.8316 45.7927C39.2688 46.943 39.8507 48.4706 42.1049 49.3656C42.0229 50.2591 41.6526 51.1008 41.0246 51.792C40.1827 52.7185 38.9661 53.2498 37.6865 53.2498C35.2401 53.2498 33.2498 51.3343 33.2498 48.9798V40.039C33.2498 37.7864 34.4348 36.6663 35.5439 36.369C36.9196 36.0008 38.3604 36.7171 39.2139 38.1953C39.559 38.7931 40.3234 38.9983 40.9214 38.6528C41.5192 38.3076 41.7241 37.5431 41.3789 36.9453C39.965 34.4963 37.3599 33.2942 34.8969 33.9542C34.293 34.1159 33.741 34.3771 33.2498 34.721V15.02C33.2498 12.6655 35.2401 10.75 37.6865 10.75C38.9601 10.75 40.1731 11.2772 41.014 12.1965C41.5797 12.8149 41.9386 13.5559 42.0681 14.3475C39.4555 14.7587 38.5364 16.42 37.9009 17.5701C37.3269 18.6087 37.1584 18.8123 36.5141 18.8123C35.8239 18.8123 35.2641 19.3721 35.2641 20.0623C35.2641 20.7526 35.8239 21.3123 36.5141 21.3123C38.6893 21.3123 39.4983 19.8482 40.089 18.7791C40.7375 17.6053 41.207 16.7566 43.3352 16.7522C45.4226 16.8052 47.2481 17.9948 48.126 19.741C48.0721 19.74 48.0188 19.7368 47.9648 19.7368C42.7955 19.7368 38.5899 23.9424 38.5899 29.1118C38.5899 34.2811 42.7955 38.4868 47.9648 38.4868C48.3518 38.4868 48.7326 38.4604 49.1073 38.4146C49.1521 38.4896 49.205 38.5609 49.267 38.6273ZM47.9648 35.9869C44.174 35.9869 41.0899 32.9028 41.0899 29.1119C41.0899 25.3211 44.174 22.2369 47.9648 22.2369C51.7557 22.2369 54.8398 25.3211 54.8398 29.1119C54.8398 32.9029 51.7557 35.9869 47.9648 35.9869Z" fill="black"/>
<path d="M51.6955 25.8972C51.168 25.4518 50.3793 25.5185 49.934 26.0461L47.1786 29.3106L45.9926 28.4005C45.4449 27.9804 44.6601 28.0832 44.2398 28.6312C43.8196 29.179 43.9228 29.9636 44.4706 30.3839L46.6031 32.0204C46.8296 32.1942 47.0973 32.2786 47.3633 32.2786C47.7196 32.2786 48.0727 32.127 48.3192 31.8349L51.8443 27.6586C52.2898 27.1311 52.2232 26.3425 51.6955 25.8972Z" fill="black"/>
</svg>
