<svg width="20" height="20" viewBox="0 0 20 20" fill="none" xmlns="http://www.w3.org/2000/svg">
<path d="M4.24827 4.70961C3.84442 4.69038 3.44096 4.78654 3.03711 5.01692C2.61404 5.22846 2.21058 5.61269 1.82635 6.17038C1.11481 7.47769 0.749807 8.93884 0.769038 10.5342C0.749807 12.0142 1.0575 13.3604 1.65327 14.5712C2.09558 15.475 2.69135 16.3208 3.47981 17.1088C5.30596 18.935 7.4975 19.8388 10.0733 19.8388C12.6298 19.8388 14.8021 18.935 16.6283 17.1088C17.4163 16.3208 18.0313 15.475 18.4737 14.5712C18.9348 13.6292 19.2233 12.6104 19.3194 11.5146C19.3387 11.1877 19.3579 10.8612 19.3771 10.5342C19.3579 10.2073 19.3387 9.88077 19.3194 9.55384C19.1079 7.40077 18.2237 5.53615 16.6283 3.96C15.2637 2.57577 13.6679 1.73 11.861 1.40346C11.784 1.07654 11.6302 0.807692 11.3802 0.557692C11.1687 0.346154 10.9383 0.192308 10.669 0.0961538C10.496 0.0384615 10.3037 0 10.0921 0C9.88058 0 9.66904 0.0384615 9.49635 0.0961538C9.24635 0.192308 9.01558 0.346154 8.80442 0.557692C8.43904 0.903846 8.26635 1.32654 8.26635 1.82654C8.26635 2.32615 8.43942 2.76846 8.80442 3.13346C9.15019 3.47961 9.57327 3.65269 10.0925 3.65269C10.5921 3.65269 11.0152 3.47961 11.3806 3.13346C11.6113 2.88346 11.7652 2.63385 11.8421 2.34538C13.399 2.67231 14.764 3.42192 15.956 4.61385C17.5898 6.24769 18.4163 8.22769 18.4163 10.5346C18.4163 12.0154 18.0706 13.3608 17.3975 14.5715C17.0129 15.2446 16.5325 15.8592 15.956 16.4362C14.3217 18.07 12.361 18.8777 10.0737 18.8777C7.76673 18.8777 5.78673 18.07 4.15288 16.4362C3.57596 15.8592 3.09558 15.2446 2.73019 14.5715C2.0575 13.3608 1.71135 12.0154 1.71135 10.5346C1.71135 8.90077 2.11519 7.45885 2.90327 6.17115C3.24904 5.78654 3.63365 5.63308 4.07596 5.69038C4.49904 5.74808 4.9025 5.97885 5.30635 6.40154L6.57481 7.67038C6.55558 7.67038 6.53635 7.68961 6.53635 7.70884C5.86327 8.51615 5.5175 9.45808 5.53673 10.5538C5.5175 11.8031 5.95981 12.86 6.86327 13.7638C7.19019 14.0908 7.55519 14.3596 7.93981 14.5715C8.57404 14.9365 9.30442 15.1092 10.0929 15.1092C10.8813 15.1092 11.5921 14.9365 12.246 14.5715C12.6113 14.3596 12.9763 14.0908 13.3033 13.7638C14.2067 12.86 14.649 11.8031 14.649 10.5538C14.649 9.30384 14.2071 8.22769 13.3033 7.34346C12.3998 6.44 11.3425 5.99769 10.0929 5.99769C8.99712 5.99769 8.03596 6.34346 7.22865 7.01654C6.65211 6.42077 6.11404 5.90154 5.61404 5.44C5.09442 4.95961 4.65211 4.72885 4.24827 4.70961ZM6.40135 10.5535C6.40135 9.53461 6.76673 8.66923 7.47788 7.95808C8.18942 7.22769 9.07327 6.86231 10.0921 6.86231C11.111 6.86231 11.976 7.22769 12.7063 7.95808C13.4175 8.66923 13.7829 9.53461 13.7829 10.5535C13.7829 11.5719 13.4175 12.4365 12.7063 13.1677C11.976 13.8792 11.111 14.2442 10.0921 14.2442C9.07327 14.2442 8.18904 13.8792 7.47788 13.1677C6.76673 12.4369 6.40135 11.5723 6.40135 10.5535Z" fill="#545454"/>
<path d="M8.80468 9.28485C8.43929 9.63062 8.2666 10.0537 8.2666 10.5537C8.2666 11.0533 8.43968 11.4956 8.80468 11.8606C9.15083 12.206 9.57353 12.3798 10.0928 12.3798C10.5928 12.3798 11.0154 12.2064 11.3808 11.8606C11.7462 11.4956 11.9189 11.0529 11.9189 10.5537C11.9189 10.0533 11.7458 9.63062 11.3808 9.28485C11.0154 8.91946 10.5928 8.72754 10.0928 8.72754C9.57353 8.72754 9.15083 8.91946 8.80468 9.28485Z" fill="#545454"/>
</svg>
