<svg width="14" height="14" viewBox="0 0 14 14" fill="none" xmlns="http://www.w3.org/2000/svg">
<g clip-path="url(#clip0)">
<path d="M9.28027 7.07175L14 10.0555V3.962L9.28027 7.07175Z" fill="white"/>
<path d="M0 3.962V10.0555L4.71975 7.07175L0 3.962Z" fill="white"/>
<path d="M13.125 2.1875H0.874995C0.43837 2.1875 0.0918701 2.513 0.0262451 2.93213L6.99999 7.52675L13.9737 2.93213C13.9081 2.513 13.5616 2.1875 13.125 2.1875Z" fill="white"/>
<path d="M8.47876 7.60022L7.24064 8.41572C7.16714 8.46385 7.08401 8.48747 7.00001 8.48747C6.91601 8.48747 6.83289 8.46385 6.75939 8.41572L5.52126 7.59935L0.0280151 11.074C0.0953901 11.4896 0.44014 11.8125 0.875015 11.8125H13.125C13.5599 11.8125 13.9046 11.4896 13.972 11.074L8.47876 7.60022Z" fill="white"/>
</g>
<defs>
<clipPath id="clip0">
<rect width="14" height="14" fill="white"/>
</clipPath>
</defs>
</svg>
