<svg width="30" height="30" viewBox="0 0 30 30" fill="none" xmlns="http://www.w3.org/2000/svg">
<path d="M20 2.5H10C5.86375 2.5 2.5 5.86375 2.5 10V26.25C2.5 26.5815 2.6317 26.8995 2.86612 27.1339C3.10054 27.3683 3.41848 27.5 3.75 27.5H20C24.1362 27.5 27.5 24.1362 27.5 20V10C27.5 5.86375 24.1362 2.5 20 2.5ZM25 20C25 22.7575 22.7575 25 20 25H5V10C5 7.2425 7.2425 5 10 5H20C22.7575 5 25 7.2425 25 10V20Z" fill="white"/>
<path d="M13.75 16.9825L10.8838 14.1162L9.11627 15.8837L13.75 20.5175L21.5088 12.7587L19.7413 10.9912L13.75 16.9825Z" fill="url(#paint0_linear)"/>
<defs>
<linearGradient id="paint0_linear" x1="21.5088" y1="20.5175" x2="7.73412" y2="17.6645" gradientUnits="userSpaceOnUse">
<stop stop-color="#FBC250"/>
<stop offset="1" stop-color="#FFE547"/>
</linearGradient>
</defs>
</svg>
